<?xml version="1.0" encoding="UTF-8" standalone="no"?>
<svg
   version="1.0"
   width="2264"
   height="2264"
   viewBox="0 0 2264 2264"
   preserveAspectRatio="xMidYMid"
   id="svg121"
   sodipodi:docname="logo KazNPU.svg"
   inkscape:export-filename="..\Documents\GitHub\Kaznpuball\favicon-16x16.svg"
   inkscape:export-xdpi="96"
   inkscape:export-ydpi="96"
   inkscape:version="1.3.2 (091e20e, 2023-11-25, custom)"
   xmlns:inkscape="http://www.inkscape.org/namespaces/inkscape"
   xmlns:sodipodi="http://sodipodi.sourceforge.net/DTD/sodipodi-0.dtd"
   xmlns="http://www.w3.org/2000/svg"
   xmlns:svg="http://www.w3.org/2000/svg">
  <defs
     id="defs121" />
  <sodipodi:namedview
     id="namedview121"
     pagecolor="#505050"
     bordercolor="#ffffff"
     borderopacity="1"
     inkscape:showpageshadow="0"
     inkscape:pageopacity="0"
     inkscape:pagecheckerboard="1"
     inkscape:deskcolor="#505050"
     inkscape:zoom="0.20785192"
     inkscape:cx="1258.1072"
     inkscape:cy="666.33976"
     inkscape:window-width="1920"
     inkscape:window-height="1017"
     inkscape:window-x="-8"
     inkscape:window-y="-8"
     inkscape:window-maximized="1"
     inkscape:current-layer="svg121" />
  <path
     id="rect121"
     style="fill:#1431d9;fill-opacity:1;stroke-width:0.047"
     d="M 0,0 V 2264 H 2264 V 0 Z" />
  <g
     fill="#ffffff"
     id="g121"
     transform="translate(-1,545.40116)">
    <path
       d="m 1,891 v -7 h 1131 1131 v 7 7 H 1132 1 Z"
       id="path1" />
    <path
       d="m 18,871 v -7 h 1114 1114 v 7 7 H 1132 18 Z"
       id="path2" />
    <path
       d="m 46.6,844.5 c 0.4,-0.9 10.6,-25.1 22.8,-53.8 l 22.3,-52.2 499.4,-0.3 c 440.8,-0.2 500.1,0 505.4,1.3 8.4,2.1 20.9,8.6 29,15 3.8,3 7.1,5.5 7.4,5.5 0.3,0 2.6,-1.6 5.1,-3.6 7.3,-5.8 17.2,-11.2 27.1,-14.6 l 9.4,-3.3 500.6,-0.3 c 401.1,-0.2 500.8,0 501.2,1 6.8,17.9 39.1,103.8 39.4,105.1 0.5,1.6 -51.6,1.7 -1084.6,1.7 -972.7,0 -1085,-0.2 -1084.5,-1.5 z M 470,820 v -5 h 12.4 12.5 l 0.3,4.8 c 0.3,4.5 0.4,4.7 3.6,5 l 3.2,0.3 v -8.5 c 0,-7.9 -0.2,-8.6 -2,-8.6 -1.9,0 -2,-0.7 -2,-18 v -18 h -13.3 -13.4 l -0.6,12.8 c -0.7,14.8 -2.8,23.2 -5.7,23.2 -1.8,0 -2,0.7 -2,7.8 0,4.3 0.3,8.2 0.7,8.5 0.3,0.4 1.9,0.7 3.5,0.7 2.7,0 2.8,-0.2 2.8,-5 z m 220,-3.5 c 0,-6.9 -0.3,-8.5 -1.5,-8.5 -0.8,0 -2.8,-2.6 -4.4,-5.7 -1.6,-3.2 -3.8,-6.7 -5,-7.7 -1.9,-1.7 -1.9,-2.1 -0.7,-3.5 0.8,-0.9 2.3,-3.8 3.3,-6.6 1.5,-4.1 2.4,-5.2 5.1,-6 2.6,-0.7 3.2,-1.4 3.2,-3.7 0,-2.6 -0.3,-2.8 -3.8,-2.8 -5.4,0 -7.6,2 -10.7,9.7 -2.5,6.3 -3.8,8.2 -5.7,8.3 -0.5,0 -0.8,-4 -0.8,-9 v -9 h -4 -4 v 21.5 21.5 h 4 4 v -9.6 -9.6 l 2.3,1.4 c 1.2,0.9 3.7,5.1 5.6,9.6 2.2,5.1 4.1,8.2 5.3,8.5 1.4,0.4 1.8,1.5 1.8,5.1 0,4.4 0.1,4.6 3,4.6 h 3 z m 160,0 c 0,-7.5 -0.2,-8.5 -1.8,-8.5 -1.3,0 -2.8,-1.9 -4.8,-6.1 -1.6,-3.4 -3.7,-6.7 -4.8,-7.5 -1.4,-1 -1.6,-1.6 -0.8,-2.6 0.5,-0.7 1.8,-3.3 2.8,-5.8 2.1,-5.5 4.1,-8 6.6,-8 1.3,0 1.8,-0.8 1.8,-3 0,-2.7 -0.3,-3 -3.4,-3 -4.5,0 -7.9,2.9 -10.1,8.7 -2.3,6.4 -4.2,9.3 -6,9.3 -1.2,0 -1.5,-1.7 -1.5,-9 v -9 h -4 -4 v 21.5 21.5 h 4 4 v -8.9 c 0,-5 0.4,-9.2 0.9,-9.5 1.7,-1.1 4.2,2.1 7.5,9.9 1.9,4.4 4.2,8.1 5,8.3 1.2,0.3 1.6,1.5 1.6,4.6 0,5 0.4,5.6 4.2,5.6 h 2.8 z m 263,0 c 0,-7.5 -0.2,-8.5 -1.8,-8.5 -1.3,0 -2.8,-1.9 -4.8,-6.1 -1.6,-3.4 -3.7,-6.7 -4.7,-7.4 -1.7,-1.2 -1.7,-1.4 0.2,-4.6 1,-1.9 2.2,-4.5 2.6,-5.9 1,-3.4 3.4,-6 5.7,-6 1.3,0 1.8,-0.8 1.8,-3 0,-2.7 -0.3,-3 -3.3,-3 -4.7,0 -6.7,1.8 -10.7,10.1 -2.1,4.4 -4.2,7.5 -5.2,7.7 -1.6,0.3 -1.8,-0.6 -1.8,-8.7 V 772 h -4 -4 v 21.5 21.5 h 4 4 v -8.8 c 0,-4.9 0.3,-9.2 0.6,-9.5 1.6,-1.6 4.4,1.9 7.9,9.8 2.1,4.7 4.4,8.5 5.2,8.5 0.9,0 1.3,1.4 1.3,4.3 0,5.1 0.4,5.7 4.2,5.7 h 2.8 z m 123,3.5 v -5 h 12.5 12.5 v 5.1 5 l 3.3,-0.3 3.2,-0.3 0.3,-8.2 c 0.3,-7.8 0.2,-8.3 -1.8,-8.3 -1.9,0 -2,-0.5 -2,-18 v -18 h -13.5 -13.5 v 6.3 c 0,8 -1.6,22.1 -3.1,26.4 -0.7,2.2 -1.7,3.3 -3,3.3 -1.7,0 -1.9,0.8 -1.9,7.8 0,4.3 0.3,8.2 0.7,8.5 0.3,0.4 1.9,0.7 3.5,0.7 2.7,0 2.8,-0.2 2.8,-5 z m 444,-3.5 c 0,-7.5 -0.2,-8.5 -1.8,-8.5 -1.3,0 -2.8,-1.9 -4.8,-6.1 -1.6,-3.4 -3.7,-6.7 -4.7,-7.4 -1.7,-1.2 -1.7,-1.4 0.2,-4.6 1,-1.9 2.2,-4.5 2.6,-5.9 1,-3.4 3.4,-6 5.7,-6 1.3,0 1.8,-0.8 1.8,-3 0,-2.7 -0.3,-3 -3.3,-3 -4.7,0 -6.7,1.8 -10.7,10.1 -2.1,4.4 -4.2,7.5 -5.2,7.7 -1.6,0.3 -1.8,-0.6 -1.8,-8.7 V 772 h -4 -4 v 21.5 21.5 h 4 4 v -8.8 c 0,-4.9 0.3,-9.2 0.6,-9.5 1.6,-1.6 4.4,1.9 7.9,9.8 2.1,4.7 4.4,8.5 5.2,8.5 0.9,0 1.3,1.4 1.3,4.3 0,5.1 0.4,5.7 4.2,5.7 h 2.8 z M 761.5,814 c 4.8,-2.3 6.5,-5.3 6.5,-11.4 0,-3.3 -0.6,-4.9 -2.6,-7 -1.5,-1.4 -3.1,-2.6 -3.6,-2.6 -0.6,0 0.4,-1.6 2.1,-3.5 4.3,-5 4.3,-9.5 -0.2,-14 -6,-6 -16.8,-5.7 -22.2,0.6 -3.3,4 -3.2,5.7 0.8,6.7 2.8,0.7 3.5,0.5 6,-2.1 2.2,-2.4 3.2,-2.8 5.5,-2.3 7.1,1.8 6.6,10.5 -0.8,11.9 -2.5,0.6 -3,1.1 -3,3.7 0,2.6 0.4,3 2.8,3 4,0 7.2,2.6 7.2,5.9 0,3.5 -1.7,5 -6.4,5.8 -3.1,0.5 -4,0.1 -6.5,-2.6 -2.6,-2.8 -3.1,-3 -6,-2 -3.7,1.3 -3.7,1.4 -1.1,5.7 3.7,6.1 13.6,8 21.5,4.2 z m 616.5,-0.2 c 5.5,-2.8 8.5,-7.2 10,-14.5 2.1,-10.1 -1.5,-21 -8.3,-25.2 -10.9,-6.7 -25.5,-0.9 -28.6,11.2 -5.2,20.9 10,37 26.9,28.5 z m 336.4,0.1 c 3.3,-2.6 3.4,-2.8 12.1,-24 l 7.3,-17.9 h -4.2 -4.3 l -3.8,11 c -2,6.1 -3.9,10.9 -4.1,10.8 -0.2,-0.2 -2.3,-5.1 -4.7,-10.8 l -4.3,-10.5 -4.7,-0.3 -4.6,-0.3 7.4,15.6 c 6.5,13.5 7.3,16 6.3,17.8 -1.5,2.9 -2.7,3.7 -6,3.7 -2.4,0 -2.8,0.4 -2.8,2.9 0,4.5 5.8,5.6 10.4,2 z m 255.6,0.5 c 4.3,-1.7 7.4,-5.3 8.5,-9.7 0.6,-2.3 0.3,-2.8 -2,-3.7 -3.6,-1.4 -5.5,-1.3 -5.5,0.4 0,0.7 -0.9,2.5 -2.1,4 -2.5,3.2 -8.5,3.6 -11.7,0.9 -5.8,-5.1 -5.2,-23.1 0.9,-26.3 4.6,-2.5 12.9,0.5 12.9,4.7 0,0.9 0.7,1.2 1.8,0.9 0.9,-0.2 2.7,-0.7 4,-1.1 2.8,-0.8 2.8,-2.3 -0.1,-6.6 -3.2,-4.7 -9.9,-7.4 -16.3,-6.4 -13.1,1.9 -19.8,20.4 -12.6,34.6 4.4,8.7 13,12 22.2,8.3 z M 110.9,810 l 1.7,-4.5 h 7.8 7.8 l 1.7,4.5 c 1.6,4.3 1.9,4.5 5.9,4.8 2.3,0.2 4.2,0 4.2,-0.4 0,-0.4 -3.4,-10.1 -7.7,-21.6 L 124.7,772 h -4.2 c -3.2,0 -4.5,0.5 -5,1.8 -1.6,4.2 -14.5,40.3 -14.5,40.8 0,0.3 1.9,0.4 4.1,0.2 3.9,-0.3 4.2,-0.6 5.8,-4.8 z m 66.2,1.2 c 2.4,-2.7 2.9,-4.1 2.9,-8.3 0,-5.5 -1.9,-9.7 -5.4,-11.9 -1.2,-0.8 -5.9,-1.6 -10.8,-1.8 l -8.8,-0.4 v -4.9 -4.9 h 11 11 v -3.5 -3.5 h -15 -15 v 21.6 21.6 l 13.6,-0.4 13.6,-0.3 z m 18.4,-1.2 1.7,-5 h 7.8 7.9 l 1.8,5 c 1.8,5 1.8,5 6.1,5 3.1,0 4.3,-0.4 4,-1.2 -0.3,-0.7 -3.8,-10.4 -7.9,-21.6 l -7.4,-20.3 -4.4,0.3 -4.4,0.3 -7.3,20.4 c -4.1,11.2 -7.4,20.7 -7.4,21.2 0,0.5 1.8,0.9 3.9,0.9 3.8,0 4,-0.1 5.6,-5 z m 52.5,-8.7 7.5,-13.2 0.3,13.4 0.3,13.5 h 3.9 4 V 793.5 772 h -4.2 -4.3 l -8,14.3 -8,14.2 -0.3,-14.2 -0.3,-14.3 h -3.4 -3.5 v 21.6 21.5 l 4.2,-0.3 4.2,-0.3 z m 47.9,8.7 1.7,-4.5 h 7.8 7.8 l 1.8,4.5 c 1.6,4.2 2,4.5 5.9,4.8 2.2,0.2 4.1,0 4.1,-0.5 0,-0.4 -3.4,-10.1 -7.7,-21.5 L 309.7,772 h -4.3 c -3.7,0 -4.3,0.3 -5.2,2.8 -6.6,18.2 -14.2,39.5 -14.2,39.8 0,0.3 1.9,0.4 4.1,0.2 3.9,-0.3 4.2,-0.6 5.8,-4.8 z M 349,797 v -18 h 6 6 v -3.5 -3.5 h -16 -16 v 3.5 3.5 h 6 6 v 18 18 h 4 4 z m 46.9,16.5 c 3.2,-1.6 6.1,-6.9 6.1,-11 0,-8.5 -6.7,-13.4 -18.2,-13.5 H 377 v -8.5 -8.5 h -4 -4 v 21.5 21.5 h 12 c 8.6,0 12.9,-0.4 14.9,-1.5 z m 19.1,-20 V 772 h -4.5 -4.5 v 21.5 21.5 h 4.5 4.5 z m 18.2,12.3 0.3,-9.3 7.8,-0.3 7.7,-0.3 v 9.6 9.5 h 4 4 V 793.5 772 h -4 -4 v 8.5 8.5 h -8 -8 v -8.5 -8.5 h -4 -4 v 21.5 21.5 h 4 3.9 z m 82.7,4.2 1.7,-4.5 h 7.8 7.8 l 1.7,4.5 c 1.6,4.3 1.9,4.5 5.9,4.8 2.3,0.2 4.2,0 4.2,-0.4 0,-0.4 -3.4,-10.1 -7.7,-21.6 L 529.7,772 h -4.2 c -3.2,0 -4.5,0.5 -5,1.8 -1.6,4.2 -14.5,40.3 -14.5,40.8 0,0.3 1.9,0.4 4.1,0.2 3.9,-0.3 4.2,-0.6 5.8,-4.8 z m 44.1,-4 v -9 h 8.5 8.5 v -3.5 -3.4 l -8.2,-0.3 -8.3,-0.3 -0.3,-5.2 -0.3,-5.3 h 9.5 9.6 V 775.5 772 H 565.5 552 v 9 c 0,7.3 -0.3,9 -1.5,9 -1,0 -1.5,1.1 -1.5,3.5 0,2.4 0.5,3.5 1.5,3.5 1.2,0 1.5,1.7 1.5,9 v 9 h 4 4 z m 55.9,7.5 c 2.9,-1.4 6.1,-7.6 6.1,-11.6 0,-1.2 -0.8,-3.7 -1.7,-5.6 -2.3,-4.8 -7.8,-7.2 -16.5,-7.3 H 597 v -8.5 -8.5 h -4 -4 v 21.5 21.5 h 12 c 8.7,0 12.9,-0.4 14.9,-1.5 z m 19.1,-20 V 772 h -4.5 -4.5 v 21.5 21.5 h 4.5 4.5 z m 69.5,16.5 1.7,-5 h 7.8 7.8 l 1.7,5 c 1.7,5 1.7,5 6.1,5 h 4.4 l -3,-8.2 c -1.7,-4.6 -5.2,-14.1 -7.8,-21.3 l -4.9,-13 -4.4,-0.3 -4.4,-0.3 -4.3,12.3 c -2.4,6.8 -5.8,16.5 -7.7,21.6 l -3.3,9.2 h 4.3 c 4.3,0 4.3,0 6,-5 z m 79.6,0.3 1.5,-4.8 h 7.9 7.9 l 1.7,4.5 c 1.6,4.2 1.9,4.5 5.8,4.8 2.2,0.2 4.1,-0.1 4.1,-0.7 0,-0.5 -3.4,-10.2 -7.6,-21.5 L 797.8,772 h -4.3 -4.2 l -7.3,20.3 c -4,11.1 -7.5,20.8 -7.8,21.5 -0.3,0.8 0.9,1.2 4,1.2 4.4,0 4.5,0 5.9,-4.7 z M 892,809.5 V 804 h 4 c 3.9,0 4,-0.1 4,-3.4 0,-3.3 -0.2,-3.5 -4,-3.8 l -4,-0.3 5.6,-9.5 c 3.1,-5.2 6.2,-10.7 7,-12.2 l 1.5,-2.8 h -4.5 -4.5 l -4.3,8 c -2.4,4.4 -4.6,8 -5,8 -0.4,0 -2.6,-3.6 -4.9,-8 l -4.3,-8 h -4.8 -4.7 l 6.9,11.9 c 3.9,6.6 7,12.2 7,12.5 0,0.3 -1.6,0.6 -3.5,0.6 -3.3,0 -3.5,0.2 -3.5,3.5 0,3.4 0.1,3.5 4,3.5 h 4 v 5.5 5.5 h 4 4 z m 28.4,3.9 c 2.3,-2.2 2.6,-4.3 2.9,-19.9 l 0.2,-14 5.8,-0.3 5.7,-0.3 v 18.1 18 h 4 4 V 793.5 772 H 929.5 916 v 14.9 c 0,18.7 -0.4,20.9 -3.9,21.3 -2.1,0.2 -2.7,0.9 -2.9,3.6 l -0.3,3.2 h 5 c 3.2,0 5.5,-0.6 6.5,-1.6 z M 971,797 v -18 h 6 6 v -3.5 -3.5 h -16 -16 v 3.5 3.5 h 6 6 v 18 18 h 4 4 z m 36,0 v -18 h 6 6 v -3.5 -3.5 h -16 -16 v 3.5 3.5 h 6 6 v 18 18 h 4 4 z m 47.7,16 c 5.7,-3.4 6.9,-13.5 2.2,-19.4 -2.5,-3.1 -7.4,-4.6 -15.6,-4.6 h -6.3 v -8.5 -8.5 h -4 -4 v 21.5 21.5 h 12.3 c 10.3,0 12.7,-0.3 15.4,-2 z M 1073,793.5 V 772 h -4 -4 v 21.5 21.5 h 4 4 z m 87,3.5 v -18 h 7.5 7.5 v 18 18 h 4.5 4.5 V 793.5 772 h -16 -16 v 21.5 21.5 h 4 4 z m 64,14.5 V 808 h -11 -11 v -6 -6 h 10 10 v -3.5 -3.5 h -10 -10 v -5 -5 h 11 11 v -3.5 -3.5 h -15 -15 v 21.5 21.5 h 15 15 z m 57.9,-1.8 1.5,-4.8 8,0.3 8,0.3 1.5,4.8 c 1.4,4.7 1.5,4.7 5.9,4.7 3.1,0 4.3,-0.4 4,-1.2 -0.3,-0.7 -3.8,-10.4 -7.9,-21.6 l -7.4,-20.3 -4.4,0.3 -4.4,0.3 -7.3,20.5 c -4.1,11.3 -7.4,20.9 -7.4,21.3 0,0.4 1.9,0.7 4.2,0.5 4.1,-0.3 4.3,-0.5 5.7,-5.1 z M 1326,797 v -18 h 9.5 9.5 v -3.5 -3.5 h -13.5 -13.5 v 21.5 21.5 h 4 4 z m 80,0 v -18 h 9.5 9.5 v -3.5 -3.5 h -13.5 -13.5 v 21.5 21.5 h 4 4 z m 41,4.7 7.5,-13.2 0.3,13.3 0.3,13.2 h 3.9 4 v -21.6 -21.5 l -4.2,0.3 -4.1,0.3 -7.6,13.5 -7.6,13.5 -0.3,-13.7 -0.3,-13.8 h -3.9 -4 v 21.5 21.5 h 4.3 4.2 z m 35,3.8 c 0,-9 0.1,-9.5 1.9,-8.6 1,0.6 3.6,4.9 5.7,9.6 l 3.8,8.5 h 4.7 4.8 l -3.9,-8.2 c -2.1,-4.6 -5,-9.6 -6.3,-11.1 -2.6,-2.8 -2.6,-2.8 -0.7,-6 1,-1.8 2.1,-4.3 2.5,-5.7 1,-3.4 3.4,-6 5.7,-6 1.3,0 1.8,-0.8 1.8,-3 0,-2.8 -0.3,-3 -3.5,-3 -4.5,0 -7.6,2.9 -10,9.5 -1.9,5.1 -4.1,8.5 -5.7,8.5 -0.4,0 -0.8,-4 -0.8,-9 v -9 h -4 -4 v 21.5 21.5 h 4 4 z m 33.9,4.5 1.7,-4.5 h 7.9 7.9 l 1.7,4.5 c 1.6,4.2 1.9,4.5 5.8,4.8 2.2,0.2 4.1,0 4.1,-0.5 0,-0.4 -3.4,-10.1 -7.6,-21.5 l -7.7,-20.8 h -4.3 c -3.7,0 -4.3,0.3 -5.2,2.8 -0.5,1.5 -4,11 -7.6,21 -3.6,10.1 -6.6,18.6 -6.6,18.8 0,0.3 1.9,0.4 4.1,0.2 3.9,-0.3 4.2,-0.6 5.8,-4.8 z m 44.7,2.9 c 1.7,-1.8 1.9,-4.1 2.2,-18 l 0.4,-15.9 h 5.9 5.9 v 18 18 h 4 4 V 793.5 772 h -14 -14 l -0.2,17.8 -0.3,17.7 -2.7,0.3 c -2.5,0.3 -2.8,0.8 -2.8,3.8 v 3.4 h 4.8 c 3.7,0 5.4,-0.5 6.8,-2.1 z m 61.1,0.1 c 6.2,-3.8 6.9,-14.8 1.3,-20 -3.3,-3.1 -6.7,-4 -15.1,-4 h -5.9 v -8.5 -8.5 h -4 -4 v 21.5 21.5 h 12.3 c 10.3,0 12.7,-0.3 15.4,-2 z M 1640,793.5 V 772 h -4 -4 v 21.5 21.5 h 4 4 z m 108,12 V 796 h 8 8 v 9.5 9.5 h 4 4 V 793.5 772 h -4 -4 v 8.5 8.5 h -8 -8 v -8.5 -8.5 h -4 -4 v 21.5 21.5 h 4 4 z m 50.7,-4.2 7.8,-13.8 0.3,13.8 0.3,13.7 h 3.4 3.5 V 793.5 772 h -3.8 -3.8 l -8,14.2 -7.9,14.3 -0.3,-14.3 -0.3,-14.2 h -3.4 -3.5 v 21.5 21.5 h 3.9 4 z m 55.9,10.5 c 3.8,-3.8 4.5,-12.1 1.4,-16 -1.2,-1.6 -2.8,-2.8 -3.7,-2.8 -1.1,0 -0.8,-0.8 1.1,-3.1 4.9,-5.8 2.9,-14.3 -4.1,-17 -1.3,-0.5 -7.4,-0.9 -13.4,-0.9 H 1825 v 21.6 21.6 l 13.5,-0.4 c 13.1,-0.3 13.5,-0.4 16.1,-3 z m 43.4,-0.3 v -3.4 l -11.2,-0.3 -11.3,-0.3 v -5.5 -5.5 l 9.8,-0.3 9.7,-0.3 v -3.4 -3.4 l -9.7,-0.3 -9.8,-0.3 v -4.5 -4.5 l 10.8,-0.3 10.7,-0.3 v -3.4 -3.5 h -15 -15 v 21.5 21.5 h 15.5 15.5 z m 17,-4.4 v -7.8 l 7.7,-0.5 c 7.3,-0.5 7.8,-0.7 11,-4.1 2.8,-3.2 3.3,-4.4 3.3,-8.7 0,-11.1 -4.1,-14 -19.5,-14 H 1907 v 21.5 21.5 h 4 4 z m 89.9,-5.9 7.6,-13.3 0.3,13.5 0.3,13.6 h 3.9 4 V 793.5 772 h -4.3 -4.2 l -8,14.3 -8,14.2 -0.3,-14.2 -0.3,-14.3 h -3.4 -3.5 v 21.6 21.5 l 4.1,-0.3 4.2,-0.3 z M 2048,797 v -18 h 6 6 v -3.5 -3.5 h -16 -16 v 3.5 3.5 h 6 6 v 18 18 h 4 4 z m 50,14.5 V 808 h -11.5 -11.5 v -6 -6 h 10 10 v -3.5 -3.5 h -10.1 -10 l 0.3,-4.7 0.3,-4.8 10.8,-0.3 10.7,-0.3 v -3.4 -3.5 h -15 -15 v 21.5 21.5 h 15.5 15.5 z m 26,-14.5 v -18 h 5.5 5.5 v -3.5 -3.5 h -15.5 -15.5 v 3.5 3.4 l 5.8,0.3 5.7,0.3 0.3,17.8 0.2,17.7 h 4 4 z m 27,-3.5 V 772 h -4 -4 v 21.5 21.5 h 4 4 z M 254.3,766.9 c 2.1,-2.6 2.2,-5.9 0.2,-5.9 -0.8,0 -1.9,0.9 -2.5,2 -0.7,1.3 -2.1,2 -4,2 -1.9,0 -3.4,-0.7 -4.2,-2 -2.6,-4.2 -5.1,-1.3 -2.7,3.1 2.3,4.3 9.9,4.7 13.2,0.8 z"
       id="path3" />
    <path
       d="m 476,805.5 c 0.5,-1.4 1.2,-5.5 1.5,-9.2 0.3,-3.8 0.8,-9.2 1.1,-12 l 0.5,-5.3 h 5.5 5.4 v 14.5 14.5 h -7.5 -7.5 z"
       id="path4" />
    <path
       d="m 1242.2,804.3 c 0.6,-2.1 1.3,-8.5 1.7,-14.3 l 0.6,-10.5 5.8,-0.3 5.7,-0.3 v 14.6 14.5 h -7.4 -7.4 z"
       id="path5" />
    <path
       d="m 1362.5,805.6 c -2.3,-2.3 -4.5,-8.2 -4.5,-12.1 0,-3.9 2.2,-9.8 4.5,-12.1 1.8,-1.8 3.5,-2.4 6.8,-2.4 7.2,0 10.7,4.7 10.7,14.5 0,10 -3.3,14.5 -10.5,14.5 -3.5,0 -5.2,-0.6 -7,-2.4 z"
       id="path6" />
    <path
       d="m 115.2,796.8 c 0.3,-0.7 1.3,-3.8 2.3,-6.8 0.9,-3 2,-5.8 2.4,-6.2 0.3,-0.4 1.8,2.7 3.3,6.7 l 2.6,7.5 h -5.5 c -4,0 -5.4,-0.3 -5.1,-1.2 z"
       id="path7" />
    <path
       d="m 155.2,802.3 0.3,-5.8 6.8,0.2 c 7.6,0.1 9.7,1.3 9.7,5.4 0,4.1 -3.2,5.9 -10.8,5.9 h -6.3 z"
       id="path8" />
    <path
       d="m 200,797.7 c 0,-0.4 3.7,-11.5 4.6,-13.7 0.4,-0.9 1.6,1.2 3,5.4 1.3,3.9 2.4,7.4 2.4,7.8 0,0.4 -2.2,0.8 -5,0.8 -2.7,0 -5,-0.2 -5,-0.3 z"
       id="path9" />
    <path
       d="m 300.2,796.8 c 0.3,-0.7 1.3,-3.8 2.3,-6.8 0.9,-3 2,-5.8 2.4,-6.2 0.3,-0.4 1.8,2.6 3.3,6.7 l 2.7,7.5 h -5.6 c -4,0 -5.4,-0.3 -5.1,-1.2 z"
       id="path10" />
    <path
       d="m 377,801.9 v -6.2 l 6.8,0.6 c 7.5,0.7 10.8,3.1 9.6,7.1 -1,3.5 -3.4,4.6 -10.1,4.6 H 377 Z"
       id="path11" />
    <path
       d="m 520.2,796.8 c 0.3,-0.7 1.3,-3.8 2.3,-6.8 0.9,-3 2,-5.8 2.4,-6.2 0.3,-0.4 1.8,2.7 3.3,6.7 l 2.6,7.5 h -5.5 c -4,0 -5.4,-0.3 -5.1,-1.2 z"
       id="path12" />
    <path
       d="m 597,801.9 v -6.2 l 6.6,0.6 c 7.8,0.8 9.4,1.8 9.4,6.3 0,4.3 -2.1,5.4 -9.9,5.4 H 597 Z"
       id="path13" />
    <path
       d="m 709,797.2 c 0,-0.4 1.1,-3.9 2.4,-7.8 1.4,-4.2 2.6,-6.3 3,-5.4 0.9,2.2 4.6,13.3 4.6,13.7 0,0.1 -2.2,0.3 -5,0.3 -2.7,0 -5,-0.4 -5,-0.8 z"
       id="path14" />
    <path
       d="m 790.6,790.8 c 1.3,-3.9 2.6,-7.3 2.8,-7.5 0.2,-0.2 1.5,3 2.9,7.1 l 2.6,7.6 h -5.4 -5.4 z"
       id="path15" />
    <path
       d="m 1035,801.9 v -6.2 l 6.8,0.6 c 5.1,0.5 7.1,1.1 8.5,2.8 2.2,2.8 2.2,4.4 -0.3,6.9 -1.6,1.6 -3.3,2 -8.5,2 h -6.5 z"
       id="path16" />
    <path
       d="m 1286,797.7 c 0,-0.4 3.7,-11.5 4.6,-13.7 0.4,-0.9 1.6,1.2 3,5.4 1.3,3.9 2.4,7.4 2.4,7.8 0,0.4 -2.2,0.8 -5,0.8 -2.7,0 -5,-0.2 -5,-0.3 z"
       id="path17" />
    <path
       d="m 1522.6,790.8 c 1.3,-3.9 2.6,-7.3 2.8,-7.5 0.2,-0.2 1.5,3 2.9,7.1 l 2.6,7.6 h -5.4 -5.4 z"
       id="path18" />
    <path
       d="m 1602,801.9 v -6.2 l 6.8,0.6 c 5.1,0.5 7.1,1.1 8.5,2.8 2.2,2.8 2.2,4.4 -0.3,6.9 -1.6,1.6 -3.3,2 -8.5,2 h -6.5 z"
       id="path19" />
    <path
       d="m 1833,801.9 v -6.2 l 7.2,0.5 c 7.6,0.6 9.8,2 9.8,6.3 0,3.9 -3,5.5 -10.3,5.5 h -6.7 z"
       id="path20" />
    <path
       d="m 1833,784 v -5 h 5.6 c 7,0 9.4,1.2 9.4,4.8 0,4.2 -1.7,5.2 -8.7,5.2 h -6.3 z"
       id="path21" />
    <path
       d="M 1915,785.6 V 779 h 3.9 c 7.7,0 11.4,3.4 9.7,8.8 -0.8,2.4 -2,2.9 -8.6,3.8 l -5,0.7 z"
       id="path22" />
    <path
       d="m 1734.8,715.6 c -7.8,-2.8 -12.2,-7.4 -15.4,-16.1 -1.8,-4.7 -1.9,-9.9 -2.2,-76.4 l -0.3,-71.3 5.8,0.6 c 3.2,0.3 8.8,0.8 12.5,1.2 l 6.8,0.6 0.2,60.3 c 0.3,58.1 0.4,60.4 2.2,62.4 2.7,3 5.8,2.3 7.9,-1.9 1.7,-3.3 1.7,-7.1 1.4,-54.5 -0.3,-47.9 -0.5,-51.5 -2.5,-59 -1.7,-6.7 -13.8,-42.1 -28.6,-84 -1.9,-5.5 -4,-13.2 -4.6,-17.1 -0.7,-4.6 -1,-25.7 -0.8,-62.5 0.4,-61.8 0.4,-61.7 7.4,-67.8 5,-4.4 10.3,-5.6 19.8,-4.2 20,2.8 29.5,12.7 31.6,32.9 0.6,4.8 1,32.4 1,61.5 V 473 l -3.2,-0.1 c -1.8,0 -7.1,-0.6 -11.8,-1.2 l -8.5,-1.2 -0.5,-50 c -0.5,-45.8 -0.7,-50.3 -2.3,-52.8 -2.2,-3.3 -5.2,-3.5 -7.2,-0.3 -1.4,2.1 -1.6,7.8 -1.3,47.2 l 0.3,44.9 17,44.5 17,44.5 0.3,70 c 0.2,47.7 -0.1,72 -0.8,76.4 -2,11.3 -6.6,17.8 -14.9,20.6 -5.5,1.9 -21.2,1.9 -26.3,0.1 z"
       id="path23" />
    <path
       d="m 1131.5,715 c -18.6,-3 -27.5,-9.9 -32.3,-25.1 -1.5,-5 -1.7,-23.9 -1.9,-246.1 -0.3,-229.5 -0.2,-240.8 1.4,-240.8 1,0.1 10.1,1.8 20.3,3.8 l 18.5,3.8 0.5,222.9 c 0.5,238.8 0.2,224.7 5.3,230.3 4.4,4.8 11.5,1.4 13.7,-6.7 0.8,-2.9 1,-66.2 0.9,-222.6 -0.1,-120.2 0.1,-218.8 0.4,-219.1 0.3,-0.3 9.1,1.1 19.6,3.1 l 19.1,3.7 -0.2,232.2 -0.3,232.1 -2.3,5.8 c -4.7,11.6 -12,17.8 -24.7,21.2 -7.2,1.9 -29.5,2.8 -38,1.5 z"
       id="path24" />
    <path
       d="m 1927.5,713.8 c -0.3,-0.7 -0.6,-31.9 -0.8,-69.3 l -0.3,-68 -10.2,-103.5 c -5.6,-56.9 -10.4,-105.6 -10.8,-108.1 l -0.6,-4.7 8.4,1.6 c 13.1,2.3 12.4,1.8 13.1,11.4 4.2,53.8 10.9,133.3 11.2,133.7 0.3,0.2 0.5,-0.8 0.5,-2.4 0,-2.6 4.7,-63.2 8.8,-112.7 1,-12 2.1,-22 2.4,-22.3 0.3,-0.4 4.8,0.2 10,1.2 9.3,1.9 9.3,1.9 9.1,4.9 -0.1,1.6 -1.8,18.7 -3.7,37.9 -2,19.3 -6.7,67.4 -10.6,107 l -7,72 v 61.3 61.2 h -9.5 c -6.7,0 -9.7,-0.4 -10,-1.2 z"
       id="path25" />
    <path
       d="m 1668.3,712.8 c -0.6,-0.7 -1.4,-2.4 -1.8,-3.8 -0.5,-1.4 -1.1,-42 -1.4,-90.2 l -0.6,-87.6 -2.4,-2.6 c -1.7,-1.8 -3.5,-2.6 -5.8,-2.6 H 1653 V 619.5 713 H 1639.5 1626 V 509.5 c 0,-111.9 0.3,-203.5 0.6,-203.5 2.7,0 47.6,9.5 50.5,10.7 5.1,2 9.4,7.1 11.6,13.5 1.6,4.8 1.8,11.6 2.1,72.2 0.2,43.8 -0.1,69.3 -0.8,73.7 -2.2,14.6 -7.9,24.4 -16.7,29 l -5.3,2.8 3.4,1.1 c 4.8,1.6 10.8,7 13.9,12.9 5.6,10.2 5.7,11.6 5.7,97.3 0,65.7 0.2,79.9 1.5,86.5 0.8,4.3 1.5,7.9 1.5,8.1 0,0.1 -5.6,0.2 -12.4,0.2 -8.7,0 -12.6,-0.4 -13.3,-1.2 z m -6.6,-226.2 2.8,-2.4 0.3,-62.4 c 0.2,-34.2 0,-63.8 -0.3,-65.7 -0.8,-4.5 -4.6,-8.1 -8.5,-8.1 h -3 v 69.9 70 l 2.3,0.4 c 1.2,0.2 2.5,0.5 2.9,0.6 0.4,0 2,-1 3.5,-2.3 z"
       id="path26" />
    <path
       d="M 1801,527 V 339.9 l 3.3,0.6 c 1.7,0.4 6.8,1.4 11.2,2.3 l 8,1.7 0.3,184.8 0.2,184.7 h -11.5 -11.5 z"
       id="path27" />
    <path
       d="m 1857.8,548.8 -0.3,-165.2 -9,-1.6 -9,-1.5 -0.3,-16.2 -0.2,-16.3 2.2,0.1 c 1.3,0 14.2,2.4 28.8,5.2 l 26.5,5.2 0.3,16.2 0.2,16.1 -7.2,-1.4 c -4,-0.8 -8.1,-1.4 -9.2,-1.4 -1.8,0 -1.8,4.1 -1.4,163 l 0.4,163 h -10.8 -10.8 z"
       id="path28" />
    <path
       d="m 1448.6,706.8 c -0.3,-3.5 -1.2,-22 -2.1,-41.3 -0.8,-19.2 -3.3,-75 -5.5,-124 -10.5,-236.8 -12.1,-272.8 -11.6,-273.2 0.3,-0.3 7.4,0.8 15.8,2.3 l 15.3,2.9 0.8,10.5 c 0.4,5.8 2.1,42.9 3.7,82.5 1.7,39.6 4.4,101.8 6,138.2 1.7,36.5 3,69.4 3,73.3 0,3.8 0.4,7 0.8,7 0.4,0 2.2,-34.8 4,-77.2 1.8,-42.5 4.4,-103.6 5.8,-135.8 3.3,-79.7 3.9,-91.8 4.4,-92.4 0.5,-0.4 29,5.1 29.7,5.8 0.3,0.2 -1.4,44.2 -3.6,97.8 -2.3,53.5 -6.1,145.9 -8.6,205.3 -2.5,59.4 -4.8,111.7 -5.1,116.3 l -0.6,8.2 h -25.8 -25.8 z"
       id="path29" />
    <path
       d="m 1542,606.7 c 0,-58.5 -0.3,-153.7 -0.7,-211.5 L 1540.7,290 h 2 c 1.7,0 48.7,8.8 56.1,10.5 2.2,0.5 2.2,0.7 2.2,19 0,10.2 -0.3,18.5 -0.7,18.5 -0.5,0 -7.1,-1.1 -14.7,-2.5 -7.7,-1.4 -14.1,-2.5 -14.3,-2.5 -0.2,0 -0.3,31 -0.3,68.9 v 68.9 l 9.8,1.1 c 5.3,0.7 11.8,1.5 14.5,1.8 l 4.7,0.6 v 18.5 18.5 l -7.2,-0.7 c -4,-0.4 -10.6,-0.9 -14.5,-1.3 l -7.3,-0.6 v 83 83 l 4.6,0.7 c 2.6,0.3 9.3,0.6 15,0.6 h 10.4 v 18.5 18.5 h -29.5 -29.5 z"
       id="path30" />
    <path
       d="M 810,473 V 234.1 l 3.8,-1 c 6,-1.6 36.6,-8 50.7,-10.7 53.1,-10 114.6,-18.2 150.8,-20 l 13.7,-0.7 V 456.9 712 H 1003.5 978 l -0.2,-160.7 -0.3,-160.8 -2.3,-8 c -7.1,-24.4 -20.2,-40.4 -37.4,-45.6 -5.6,-1.7 -8.7,-2 -16.1,-1.7 -11.3,0.6 -18,3 -27.9,10.1 -16,11.5 -27.3,30.4 -33.1,55.2 -2.1,8.9 -2.1,10.9 -2.4,160.3 L 857.9,712 H 834 810 Z m 69.5,-164.1 c 0.6,-0.1 -0.3,-0.4 -2,-0.8 l -3,-0.6 -0.3,-23.3 c -0.1,-12.7 -0.5,-23.2 -0.9,-23.2 -1.1,0 -16.2,10.5 -16.3,11.3 0,0.4 0.9,0.3 2.1,-0.3 4.6,-2.5 4.9,-1.4 4.9,18.6 v 18.6 l -3,1.1 c -5.8,2.2 -2.9,2.4 7.3,0.6 5.6,-1 10.7,-1.9 11.2,-2 z m 19.1,-5 c 5.2,-3.2 11.1,-10.6 13.5,-16.8 2.9,-7.7 3.1,-18.2 0.4,-23.6 -7.6,-15 -26.8,-4.4 -25.3,14 0.7,8.8 5.6,12.6 12.9,10.1 4.1,-1.4 4.1,-1.4 3.5,0.9 -1.8,7.2 -8,15.2 -13.6,17.5 -1.7,0.7 -3,1.6 -3,2.1 0,1.1 7.4,-1.6 11.6,-4.2 z m 36,-4.4 9.2,-1.7 0.7,-4.6 c 0.3,-2.6 0.9,-5.8 1.2,-7.2 l 0.5,-2.5 -2.4,2.7 c -1.5,1.8 -4,3 -7.6,3.7 -8.4,1.7 -8.5,1.6 -3.1,-5.6 9.6,-12.9 12.7,-21.9 9.5,-28.1 -2,-3.8 -4.4,-5.2 -8.8,-5.2 -5,0 -9.2,3.1 -12.2,9.1 -1.4,2.9 -2.4,5.5 -2.1,5.7 0.2,0.3 1.8,-0.9 3.4,-2.7 6,-6.4 12.9,-2.7 11.9,6.3 -0.6,5.4 -5.2,15.3 -10.7,23.5 -2.3,3.3 -4.4,6.8 -4.8,7.7 -0.7,1.9 -1.9,2 15.3,-1.1 z m 35.5,-4.8 c 5.3,-2.8 8.9,-8.5 8.9,-14.2 0,-4.5 -2.8,-9.8 -6.1,-11.6 -2.2,-1.1 -2.2,-1.2 -0.4,-2.5 3.3,-2.5 5.5,-6.8 5.5,-11.1 0,-5.5 -3.3,-8.3 -9.9,-8.3 -8.6,0 -16.1,6.8 -16.1,14.5 0,3.6 3.1,8.9 6.1,10.5 2.2,1.2 2.2,1.2 -0.9,3.6 -1.7,1.3 -3.8,4.4 -4.7,6.8 -4.3,11.3 6,18.4 17.6,12.3 z"
       id="path31" />
    <path
       d="m 897.4,280.5 c -1.6,-4 -1.9,-16.7 -0.4,-19.6 1.4,-2.6 4.7,-2.4 6.1,0.3 1.8,3.3 2.5,19.4 0.9,21.3 -2.2,2.6 -5,1.8 -6.6,-2 z"
       id="path32" />
    <path
       d="m 962.2,293.4 c -2.5,-1.7 -3.5,-7.1 -2.3,-12.4 1.4,-6.2 2.5,-6.9 6.1,-3.5 4.2,4 5.5,8.4 3.7,12.8 -1.7,3.9 -4.6,5.1 -7.5,3.1 z"
       id="path33" />
    <path
       d="m 964,262.5 c -3.8,-3.9 -4.4,-8.3 -1.5,-11.5 5.4,-5.9 10.7,2.5 7.4,11.9 -0.6,1.7 -1.4,3.1 -1.8,3.1 -0.4,0 -2.2,-1.6 -4.1,-3.5 z"
       id="path34" />
    <path
       d="M 1237,471 V 230 l 2.3,0.5 c 1.2,0.2 7.4,1.4 13.7,2.6 6.3,1.2 11.8,2.5 12.2,2.8 0.4,0.3 7.3,46.3 15.3,102.1 8.1,55.8 15.5,106.7 16.5,113 1.8,11.4 1.8,10.8 1.9,-98.8 0.1,-104.6 0.2,-110.3 1.9,-109.8 0.9,0.3 9,1.9 18,3.7 l 16.2,3.2 V 480.6 712 h -12.8 -12.8 l -8.1,-54.2 c -4.5,-29.9 -12.2,-80.8 -17,-113.3 l -8.8,-59 -0.3,113.3 -0.2,113.2 h -19 -19 z"
       id="path35" />
    <path
       d="m 1371,484.1 c 0,-216.5 0.1,-227.9 1.8,-227.5 0.9,0.2 7.8,1.5 15.2,2.9 7.4,1.5 14.3,2.9 15.3,3.1 1.6,0.5 1.7,12.1 1.7,225 V 712 h -17 -17 z"
       id="path36" />
    <path
       d="m 862.5,702.8 c -0.3,-4.6 -0.5,-72.6 -0.3,-151.3 0.4,-142.9 0.4,-143 2.5,-151 4.9,-18.2 14.3,-34.8 25.4,-44.8 31.1,-28.2 68.3,-13.7 81.1,31.8 l 2.3,8 0.3,157.8 0.2,157.7 h -55.4 -55.4 z m 19.6,2.6 6.5,-0.7 -0.4,-17.6 c -0.2,-9.7 -0.6,-17.7 -0.7,-17.9 -0.2,-0.2 -4.8,0 -10.4,0.4 l -10.1,0.7 v 17.8 17.9 h 4.3 c 2.3,0 7.1,-0.3 10.8,-0.6 z m 32.9,-8.1 c 0,-4.9 -0.3,-13.2 -0.7,-18.5 L 913.7,669 H 902.8 892 v 18 17.9 l 5.8,0.4 c 3.1,0.2 8.3,0.4 11.5,0.5 l 5.7,0.2 z m 29,1.5 c 0,-4 -0.3,-12.4 -0.7,-18.5 L 942.7,669 H 931.3 920 v 17.8 c 0,9.8 0.3,18.2 0.7,18.5 0.3,0.4 5.7,0.7 12,0.7 H 944 Z m 25.4,6.4 c 0.3,-0.5 0.2,-8.8 -0.1,-18.5 L 968.7,669 H 957.8 947 v 17.8 c 0,9.8 0.3,18.2 0.7,18.5 0.9,1 21.1,0.9 21.7,-0.1 z m -96.6,-41.8 c 2.2,-0.6 2.3,-1 2,-9.8 l -0.3,-9.1 -3.7,-0.3 -3.8,-0.3 v 10 c 0,10.9 0,11 5.8,9.5 z M 888,653.5 V 644 h -4.5 -4.5 v 9.5 9.5 h 4.5 4.5 z m 26,-0.5 v -10 h -7.7 c -4.3,0 -9.5,0.3 -11.5,0.6 l -3.8,0.7 v 9.3 9.4 h 11.5 11.5 z m 27.8,9.4 c 2.1,-0.6 2.2,-1.1 2.2,-10 V 643 h -12 -12 v 10 10 h 9.8 c 5.3,0 10.7,-0.3 12,-0.6 z M 957,652 v -10 h -4.4 c -2.5,0 -4.7,0.4 -5,0.9 -0.3,0.5 -0.3,5 0.1,10 l 0.6,9.1 h 4.3 4.4 z m 12,0 v -10 h -4 -4 v 10 10 h 4 4 z m -94,-30 v -17 h -4 -4 v 17 17 h 4 4 z m 12.8,-0.7 0.2,-17.3 h -4.5 -4.5 v 17.6 17.5 l 4.3,-0.3 4.2,-0.3 z m 27,-1 0.2,-17.3 h -3.7 c -2.1,0 -7.5,0.3 -12,0.7 l -8.3,0.6 v 16.9 16.9 l 11.8,-0.3 11.7,-0.3 z m 24,16.7 H 944 V 619.5 602 h -5.2 c -2.9,0 -8.3,0.3 -12,0.7 l -6.8,0.6 v 17.5 17.5 l 6.8,-0.6 c 3.7,-0.4 9.1,-0.7 12,-0.7 z M 957,619.5 V 602 h -5 -5 v 17.5 17.5 h 5 5 z m 12,0 V 602 h -4 -4 v 17.5 17.5 h 4 4 z M 874.8,582.3 875,565 h -4 -4 v 17.6 17.5 l 3.8,-0.3 3.7,-0.3 z m 13.2,-0.9 v -17.5 l -4.2,0.3 -4.3,0.3 -0.3,17.3 -0.2,17.2 h 4.5 4.5 z m 25.8,16 c 1,-0.3 1.2,-4.3 1,-17.6 l -0.3,-17.2 -6.5,0.2 c -3.6,0.1 -8.9,0.5 -11.7,0.8 l -5.3,0.6 v 17.3 17.3 l 10.8,-0.5 c 5.9,-0.2 11.3,-0.6 12,-0.9 z M 944,578.9 v -18.2 l -5.2,0.7 c -2.9,0.3 -8.3,0.6 -12,0.6 H 920 v 17.5 17.5 h 12 12 z m 11.4,17.5 c 1.4,-0.5 1.6,-3.1 1.6,-18.1 v -17.4 l -4.7,0.3 -4.8,0.3 -0.3,16.5 c -0.1,9 0,17 0.2,17.7 0.6,1.3 5.3,1.8 8,0.7 z M 969,578 v -18 h -2.4 c -5.7,0 -5.6,-0.2 -5.6,18.6 V 596 h 4 4 z M 874.8,543.3 875,527 h -4 -4 v 16.6 16.5 l 3.8,-0.3 3.7,-0.3 z M 888,542.5 V 526 h -4.5 -4.5 v 16.5 16.5 h 4.5 4.5 z m 21.8,14.9 5.2,-0.5 v -16.6 -16.6 l -8.2,0.6 c -4.6,0.4 -10,0.7 -12,0.7 H 891 v 16.9 16.9 l 6.8,-0.5 c 3.7,-0.2 9.1,-0.6 12,-0.9 z m 25,-1 9.2,-0.7 v -17 -17 l -5.2,0.7 c -2.9,0.3 -8.3,0.6 -12,0.6 H 920 v 17 17 h 2.8 c 1.6,0 7,-0.3 12,-0.6 z m 22,-17.6 0.2,-16.8 h -5 -5 v 16.3 c 0,9 0.3,16.7 0.7,17.1 0.4,0.4 2.5,0.6 4.8,0.4 l 4,-0.3 z M 969,538 v -17 h -4 -4 v 17 17 h 4 4 z M 874.8,504.8 875,488 h -4 -4 v 17.1 17 l 3.8,-0.3 3.7,-0.3 z m 13,-1.7 0.2,-17.4 -3.1,0.7 c -1.7,0.3 -3.8,0.6 -4.5,0.6 -1.1,0 -1.4,3.3 -1.4,17.1 v 17 l 4.3,-0.3 4.2,-0.3 z m 26.5,15.2 c 0.4,-0.2 0.7,-8.1 0.7,-17.5 v -17 l -8.7,0.6 c -4.9,0.4 -10.3,1 -12,1.3 l -3.3,0.5 v 17 17 l 11.3,-0.7 c 6.1,-0.4 11.5,-0.9 12,-1.2 z m 20.5,-0.9 9.2,-0.7 v -17.5 -17.5 l -9.2,0.7 c -5,0.3 -10.4,0.6 -12,0.6 H 920 v 17.5 17.5 h 2.8 c 1.6,0 7,-0.3 12,-0.6 z m 20.8,-1.4 c 1.1,0 1.4,-3.3 1.4,-17.5 V 481 h -3.4 c -6.8,0 -6.6,-0.5 -6.6,17.9 0,9.2 0.3,17.1 0.7,17.5 0.5,0.4 2.1,0.5 3.7,0.2 1.6,-0.3 3.5,-0.6 4.2,-0.6 z M 969,498.5 V 481 h -4 -4 v 17.5 17.5 h 4 4 z m -96.2,-16.1 c 2.2,-0.6 2.2,-0.9 2.2,-17.5 0,-18.4 0.2,-17.9 -5.7,-16.3 -2.3,0.6 -2.3,0.9 -2.3,17.5 0,18.4 -0.2,17.9 5.8,16.3 z m 13,-1.4 c 2.2,0 2.2,0 2.2,-17 v -17 h -4.5 -4.5 v 17.6 17.6 l 2.3,-0.6 c 1.2,-0.3 3.2,-0.6 4.5,-0.6 z m 29,-19.7 C 915,444.6 915,444 913.1,444 c -1.1,0 -6.5,0.5 -12.1,1.1 l -10,1.2 v 17.1 17.1 l 11.8,-1 11.7,-1 z m 23.3,15.7 h 5.9 v -18 -18 l -2.2,0.4 c -1.3,0.3 -6.7,0.8 -12,1.1 l -9.8,0.7 v 17.5 17.6 l 6.1,-0.7 c 3.4,-0.3 8.8,-0.6 12,-0.6 z M 957,458.2 v -17.7 l -4.5,0.3 -4.5,0.4 v 5.2 c 0,2.9 -0.3,10.8 -0.7,17.4 l -0.6,12.2 h 5.1 5.2 z m 12,-0.7 V 440 h -4 -4 v 17.5 17.5 h 4 4 z M 872.6,443 c 2.3,0 2.4,-0.2 2.4,-7.6 0,-6.5 -0.2,-7.5 -1.6,-7 -0.9,0.3 -2.7,0.6 -4,0.6 -2.3,0 -2.4,0.2 -2.4,7.6 0,6.5 0.2,7.5 1.6,7 0.9,-0.3 2.7,-0.6 4,-0.6 z m 15.2,-8.7 0.3,-7.3 h -3 c -5.6,0 -6.1,0.6 -6.1,8.2 v 6.9 l 4.3,-0.3 4.2,-0.3 z m 20.2,4.9 6.5,-0.7 0.3,-7.2 c 0.3,-8.5 1.6,-7.9 -13.8,-6.2 l -10,1.2 v 7.4 7.4 l 5.3,-0.6 c 2.8,-0.3 8.1,-0.9 11.7,-1.3 z m 30.8,-2.8 5.2,-0.5 v -7.5 -7.5 l -4.2,0.5 c -2.4,0.3 -7.8,0.8 -12,1.2 l -7.8,0.6 v 7.5 7.5 l 6.8,-0.7 c 3.7,-0.3 9.1,-0.8 12,-1.1 z m 16.8,-1.4 c 1.1,0 1.4,-1.8 1.4,-7.5 0,-8.1 0,-8.1 -5.9,-6.9 l -3.1,0.7 v 7.5 7.5 l 3.1,-0.7 c 1.7,-0.3 3.8,-0.6 4.5,-0.6 z m 13.4,-8.1 c 0,-7 -0.2,-8 -1.6,-7.5 -0.9,0.3 -2.7,0.6 -4,0.6 -2.3,0 -2.4,0.2 -2.4,7.5 v 7.5 h 4 4 z m -97.2,-3.5 c 2.8,-0.6 3.1,-1 3.7,-5.7 0.4,-2.8 1.6,-8.1 2.6,-11.7 0.9,-3.5 1.7,-6.5 1.6,-6.6 -0.1,0 -1.9,-1.1 -4,-2.3 -2.1,-1.3 -4,-2.2 -4.2,-2 -1,1.1 -3.7,14 -4.2,20.9 -0.6,8.5 -0.7,8.4 4.5,7.4 z m 15.8,-2.2 c 0.9,-0.6 3.8,-10.7 3.9,-13.6 0,-0.5 -1.7,-1.9 -3.7,-3.2 -3.5,-2.2 -3.8,-2.3 -4.7,-0.6 -0.8,1.4 -4.1,15.8 -4.1,17.7 0,0.8 7.3,0.6 8.6,-0.3 z m 16.8,-1.8 5.9,-0.7 -6.9,-4.3 c -3.8,-2.4 -7.2,-4.4 -7.6,-4.4 -0.6,0 -3.8,8.5 -3.8,10.3 0,0.5 1.5,0.7 3.3,0.4 1.7,-0.3 5.8,-0.9 9.1,-1.3 z m 39.3,-3.8 c 0.6,-0.5 -2.9,-9.6 -3.7,-9.6 -0.4,0 -3.8,2.5 -7.6,5.7 l -6.9,5.6 9,-0.7 c 4.9,-0.4 9.1,-0.9 9.2,-1 z m 12.9,-5.3 c -0.4,-2.7 -1.4,-7.2 -2.2,-10.1 -1.6,-5.8 -1.7,-5.8 -7.7,-0.6 l -3.5,3.2 2.2,6.1 2.1,6.1 h 4.9 4.8 z m -47.9,-4.6 c -1.7,-4.2 -3.6,-7.7 -4.2,-7.7 -0.5,0 -2.2,1.6 -3.8,3.5 l -2.7,3.4 6.7,4.4 c 3.8,2.4 6.9,4.3 7,4.2 0.2,-0.1 -1.2,-3.6 -3,-7.8 z m 60.3,2.4 c 0,-6.5 -2.5,-21 -3.8,-22.3 -1.3,-1.3 -9.2,5.4 -8.5,7.2 1.2,3.1 4.3,16.6 4.3,18.8 0,1.9 0.5,2.2 4,2.2 h 4 z m -36.2,-3.1 5.2,-4.3 -2.7,-2.9 c -1.5,-1.6 -3.1,-2.7 -3.6,-2.5 -0.7,0.2 -7.7,15.2 -7.7,16.5 0,0.3 0.8,-0.2 1.8,-1 0.9,-0.8 4.1,-3.4 7,-5.8 z M 915,399.9 c 0,-7.9 0,-8 -2.2,-7.4 -1.3,0.4 -2.6,1 -3.1,1.4 -0.6,0.6 4.2,14.1 5.1,14.1 0.1,0 0.2,-3.6 0.2,-8.1 z m 9.4,-0.5 c 1.5,-3.7 2.6,-6.8 2.4,-6.9 -0.2,-0.2 -1.5,-0.6 -3.1,-1 l -2.7,-0.7 v 5.8 c 0,3.3 -0.3,7 -0.7,8.3 -1.2,4.8 1.5,1.1 4.1,-5.5 z m -28.4,2.8 c 0,-0.4 1.6,-2.3 3.5,-4.2 1.9,-1.9 3.5,-3.9 3.5,-4.4 0,-1.4 -5.2,-12.6 -5.9,-12.6 -1.6,0 -12,15.6 -10.9,16.4 2.1,1.7 8.4,5.6 9,5.6 0.5,0 0.8,-0.4 0.8,-0.8 z m 49.9,-8.2 c 4.1,-3.6 4.4,-4.1 3.3,-6.4 -1.6,-3.7 -9.4,-11.8 -10.3,-10.9 -0.4,0.4 -1.9,3.7 -3.3,7.2 l -2.6,6.5 3.7,3.8 c 2,2.1 4,3.8 4.3,3.8 0.3,-0.1 2.5,-1.8 4.9,-4 z m -57.4,-9.2 c 2.8,-3.9 5.4,-7.6 5.9,-8.3 0.6,-0.8 -0.1,-3.4 -2,-7.5 l -2.9,-6.2 -4.8,6.3 c -2.6,3.5 -6.3,9.5 -8.2,13.4 l -3.4,7 4.2,2.6 c 3.6,2.4 4.3,2.5 5.2,1.2 0.6,-0.8 3.3,-4.7 6,-8.5 z M 915,378.9 V 370 l -2.5,1 c -3.8,1.5 -10.3,4.9 -10.8,5.7 -0.3,0.5 0.9,3.8 2.5,7.4 l 3,6.7 3.9,-1.6 3.9,-1.5 z m 19.5,-3.8 c 0.5,-1.8 0.1,-2.4 -2.7,-3.5 -1.8,-0.7 -5,-1.6 -7,-2 l -3.8,-0.7 v 9 8.9 l 3.8,0.9 3.7,1 2.6,-5.7 c 1.5,-3.1 3,-6.7 3.4,-7.9 z m 27.9,2.5 c -1,-3.5 -6.7,-12.4 -11,-17.3 l -4,-4.7 -3.1,7.4 -3.1,7.5 4.2,4.5 c 2.3,2.5 5.2,6.2 6.5,8.3 l 2.3,3.7 4.4,-3.6 c 3.5,-2.9 4.3,-4.1 3.8,-5.8 z m -52.6,-10.6 4.7,-1.8 0.3,-8.7 c 0.3,-8.6 0.3,-8.7 -2,-8 -7.9,2.3 -18.8,9.1 -18.8,11.7 0,0.6 1.2,3.7 2.6,6.9 l 2.7,5.9 2.9,-2.2 c 1.6,-1.1 5.1,-2.9 7.6,-3.8 z m 30.6,-6 c 2.3,-5.7 2.6,-7.3 1.6,-8.5 -1.6,-1.9 -13.1,-5.5 -17.6,-5.5 H 921 v 8.4 c 0,9 0.3,9.6 5.8,9.6 1.5,0.1 4.1,0.7 5.7,1.5 1.7,0.7 3.5,1.4 4,1.4 0.6,0.1 2.3,-3.1 3.9,-6.9 z"
       id="path37" />
    <path
       d="m 561.5,709.3 -13,-0.4 -0.3,-196.2 c -0.2,-134.9 0,-198.4 0.7,-203.4 3.4,-22.8 17.1,-33.3 53.7,-40.9 16.6,-3.5 35,-3.9 43.3,-1 6.8,2.3 13.1,8.5 15.7,15.2 1.8,4.8 1.9,11.1 2.2,216.2 L 664,710 H 640 616 V 615.5 521 h -3.3 c -1.9,0 -6.8,0.3 -11,0.6 l -7.7,0.7 v 93.8 93.9 l -9.7,-0.2 c -5.4,-0.1 -15.6,-0.4 -22.8,-0.5 z m 46.8,-226.9 7.7,-0.6 -0.2,-82.5 -0.3,-82.5 -2.8,-2.4 c -3.4,-2.9 -9.2,-3.2 -12.4,-0.6 -1.1,0.9 -3.1,3.3 -4.2,5.2 -2.1,3.5 -2.1,4.1 -2.1,84.4 v 80.8 l 3.3,-0.5 c 1.7,-0.3 6.7,-0.9 11,-1.3 z"
       id="path38" />
    <path
       d="M 692,483.1 V 256.2 l 24.3,-4.6 c 13.3,-2.6 24.8,-4.9 25.5,-5.1 0.9,-0.4 1.2,46.4 1.2,231.5 V 710 H 717.5 692 Z"
       id="path39" />
    <path
       d="m 307.2,527.3 c 0.3,-173.3 0.4,-182 2.1,-186.5 5.9,-15.1 27.1,-25.3 55.2,-26.5 18.5,-0.8 24.8,1.8 30,12.2 l 3,6 0.3,188.3 0.2,188.2 -18.7,-0.2 -18.8,-0.3 -0.3,-83.2 L 360,542 h -3.9 c -2.1,0 -5.9,0.3 -8.5,0.6 l -4.6,0.7 v 82.8 82.9 h -18 -18 z m 51.1,-20.2 c 1.6,-0.1 1.7,-4.3 1.7,-73.7 v -73.6 l -2.9,-2.9 c -3.5,-3.4 -4.9,-3.6 -8.5,-0.8 -5.8,4.6 -5.6,1.4 -5.6,80.2 v 72.3 l 6.8,-0.7 c 3.7,-0.5 7.5,-0.8 8.5,-0.8 z"
       id="path40" />
    <path
       d="m 421.2,507.9 0.3,-201.2 30,-5.9 c 39.9,-7.9 44.1,-8.4 52.2,-7.1 8.4,1.5 13.4,4.8 16.4,11 l 2.4,4.8 v 83 c 0,93.6 0.4,88.8 -7.7,96 C 511,492 496,500 493.4,500 c -0.7,0 -1.5,0.4 -1.8,0.9 -0.3,0.4 3.3,2.1 7.9,3.6 15.2,4.9 19.8,9.3 22.4,21.3 0.8,3.7 1.1,29.1 1.1,82.1 0,84 0.1,82.5 -5.9,90.8 -1.9,2.6 -5,5.1 -8.8,6.9 l -5.8,2.9 -40.8,0.3 -40.7,0.3 z M 473.8,669 c 1.9,-1.2 4.1,-3.8 5.2,-6.3 1.9,-4 2,-7.2 2,-66.2 0,-58.7 -0.1,-62.2 -1.9,-66.2 -2.4,-5.3 -4.8,-6.5 -11.9,-6.1 l -5.7,0.3 -0.3,73.3 -0.2,73.2 h 4.7 c 3,0 6,-0.8 8.1,-2 z m 0.8,-183.9 c 2.6,-1.2 4.5,-2.9 5.3,-4.8 0.9,-2.2 1.1,-19.2 0.9,-69.8 -0.3,-61.8 -0.4,-67.3 -2.1,-70.2 -2.7,-5.1 -6.6,-6.3 -14.6,-4.7 l -3.1,0.7 v 75.3 75.4 h 4.8 c 2.6,0 6.5,-0.9 8.8,-1.9 z"
       id="path41" />
    <path
       d="M 1904,344.4 C 1808.7,324.8 1313.7,223.8 1231,207 c -77.9,-15.7 -109.5,-20.9 -153.5,-25.2 -17.5,-1.7 -75.1,-1.7 -93,0 -21.5,2.1 -49.6,5.8 -75.5,10.2 -23.6,4 -79.8,15 -431.5,84.8 l -190,37.8 -0.3,-5 c -0.2,-2.7 0,-5.2 0.5,-5.6 0.7,-0.7 531.6,-108.9 575.8,-117.4 69,-13.3 110.5,-18.4 155.7,-19.3 30.9,-0.6 52.7,0.5 82.7,4.3 36.2,4.5 50.5,7.2 181.1,34.5 55.3,11.5 235.5,49.1 400.5,83.5 165,34.3 301.1,62.8 302.5,63.3 2,0.6 2.6,1.5 2.8,4.4 0.3,3.5 0.2,3.7 -2.5,3.6 -1.5,-0.1 -38.6,-7.5 -82.3,-16.5 z"
       id="path42" />
    <path
       d="m 1985.3,345.3 -2.3,-0.4 V 311 277.2 l -42.7,-10.6 C 1868.7,249 1314.4,111.9 1252.5,96.5 1162.5,74.1 1133.4,68.4 1083,63.3 c -23.8,-2.4 -77.8,-2.3 -104,0.1 -55.2,5.1 -95.3,12.4 -170.5,31.1 -25.3,6.3 -149.8,36.8 -276.6,67.9 -126.8,31 -232.4,56.9 -234.7,57.5 l -4.2,1.2 v 35.8 35.9 l -2.5,0.4 -2.5,0.5 v -41.8 c 0,-38.9 0.1,-41.8 1.8,-42.3 0.9,-0.3 113.3,-28.2 249.7,-62 C 675.9,113.7 799.9,82.9 815,79.1 925.5,51.2 1012.8,42.5 1093,51.6 c 18.7,2.1 46.9,6.8 69.5,11.5 10.5,2.2 162.1,39.8 337,83.4 288.8,72.2 370.1,92.7 459.8,116 l 29.7,7.8 v 37.9 c 0,20.8 -0.3,37.7 -0.7,37.7 -0.5,-0.1 -1.8,-0.4 -3,-0.6 z"
       id="path43" />
    <path
       d="m 1967.3,335.3 c -1,-0.4 -1.3,-5.3 -1.3,-20.3 v -19.8 l -2.7,-0.6 c -1.6,-0.4 -3.6,-0.9 -4.5,-1.2 -1.6,-0.5 -1.8,0.4 -1.8,10.1 0,8.1 -0.3,10.6 -1.2,10.3 -0.9,-0.3 -1.4,-3.7 -1.6,-11.1 l -0.3,-10.6 -4.2,-0.8 -4.2,-0.9 -0.3,20.4 c -0.2,15.6 -0.5,20.3 -1.5,19.9 -0.9,-0.3 -1.3,-5.7 -1.5,-20.9 l -0.2,-20.5 -4.5,-1 -4.5,-1 v 10.8 c 0,9.2 -0.2,10.8 -1.5,10.3 -1.2,-0.5 -1.5,-2.7 -1.5,-10.9 0,-5.7 -0.4,-10.6 -0.8,-10.9 -0.5,-0.3 -2.8,-0.8 -5,-1.2 l -4.2,-0.7 v 20.8 c 0,16.1 -0.3,20.6 -1.2,20.3 -1,-0.4 -1.4,-5.8 -1.6,-21.5 l -0.2,-21 -4.5,-1 -4.5,-1 v 10.8 c 0,8.9 -0.3,10.9 -1.5,10.9 -1.2,0 -1.5,-2.1 -1.7,-11.2 l -0.3,-11.2 -4.7,-1.2 -4.8,-1.2 v 20.9 c 0,17.9 -0.2,20.9 -1.5,20.9 -1.3,0 -1.5,-3 -1.5,-21 v -21 l -2.3,-0.9 c -1.3,-0.5 -3.6,-1.1 -5.3,-1.3 l -2.9,-0.3 -0.3,10.8 c -0.2,8.6 -0.6,10.7 -1.7,10.7 -1.2,0 -1.5,-2 -1.5,-11.4 v -11.4 l -4.4,-1.1 c -2.5,-0.6 -4.7,-1.1 -5,-1.1 -0.3,0 -0.6,9.7 -0.6,21.5 0,18.4 -0.2,21.5 -1.5,21.5 -1.3,0 -1.5,-3.1 -1.5,-21.9 v -21.9 l -4.4,-1.1 c -2.5,-0.6 -5,-1.1 -5.5,-1.1 -0.7,0 -1.1,3.9 -1.1,11 0,9 -0.3,11 -1.5,11 -1.2,0 -1.5,-2.2 -1.7,-11.7 l -0.3,-11.8 -5.2,-1.1 -5.3,-1.2 v 22.4 c 0,19.4 -0.2,22.3 -1.5,21.8 -1.3,-0.5 -1.5,-4 -1.5,-22.5 0,-24.6 0.7,-22.5 -7.7,-24.4 l -3.3,-0.7 v 11.7 c 0,10.6 -0.2,11.6 -1.7,11.3 -1.6,-0.3 -1.8,-1.8 -2.1,-12 l -0.3,-11.7 -4.2,-1.1 c -2.3,-0.6 -4.8,-1.3 -5.4,-1.5 -1,-0.3 -1.3,4.5 -1.3,21.9 0,12.2 -0.3,22.5 -0.6,22.9 -0.3,0.3 -1.2,0.3 -2,0 -1.1,-0.4 -1.4,-4.7 -1.4,-23.3 v -22.8 l -5,-1.1 c -2.8,-0.6 -5.3,-1.1 -5.5,-1.1 -0.3,0 -0.5,5.2 -0.5,11.5 0,10.8 -0.1,11.5 -2,11.5 -1.8,0 -2,-0.8 -2.2,-12.2 l -0.3,-12.2 -5,-1.3 c -2.7,-0.7 -5.3,-1.3 -5.7,-1.3 -0.5,0 -0.8,10.4 -0.8,23 0,22.3 -0.1,23 -2,23 -1.9,0 -2,-0.7 -2,-23.5 v -23.4 l -4.2,-1.1 c -2.4,-0.6 -5.1,-1.3 -6,-1.6 -1.6,-0.5 -1.8,0.7 -2,12 -0.3,10.8 -0.5,12.4 -1.8,11.6 -1.2,-0.7 -1.6,-3.6 -1.8,-12.9 l -0.4,-11.9 -5.9,-1.5 -5.9,-1.5 v 24 c 0,22.3 -0.1,23.9 -1.7,23.6 -1.7,-0.3 -1.8,-2.4 -2.1,-24.5 l -0.2,-24.1 -6.3,-1.4 -6.2,-1.3 -0.3,12.2 c -0.2,11.5 -0.4,12.3 -2.2,12.3 -1.9,0 -2,-0.7 -2,-12.9 v -12.9 l -4.7,-1.1 c -2.7,-0.7 -5.6,-1.4 -6.5,-1.7 -1.7,-0.5 -1.8,1.1 -1.8,24.1 0,22.9 -0.1,24.6 -1.7,24.3 -1.7,-0.3 -1.8,-2.4 -2.1,-24.9 l -0.2,-24.7 -4.8,-1.1 c -2.6,-0.7 -5.5,-1.4 -6.4,-1.7 -1.7,-0.5 -1.8,0.6 -1.8,12.6 0,12 -0.2,13.1 -1.7,12.8 -1.6,-0.3 -1.8,-1.9 -2.1,-13.4 l -0.3,-13.2 -6.4,-1.6 c -3.5,-0.9 -6.7,-1.6 -7,-1.6 -0.3,0 -0.5,11.3 -0.5,25 0,19.3 -0.3,25 -1.2,25 -3.6,-0.1 -3.8,-1.3 -4,-26.5 l -0.3,-24.9 -6.7,-1.7 -6.8,-1.7 v 13.4 c 0,7.4 -0.3,13.4 -0.7,13.4 -2.5,-0.1 -3.1,-2.5 -3.8,-14.7 l -0.7,-13.1 -6.4,-1.6 c -3.5,-0.9 -6.6,-1.6 -6.9,-1.6 -0.3,0 -0.5,11.5 -0.5,25.6 v 25.5 l -2.2,-0.3 -2.3,-0.3 -0.3,-26.1 -0.2,-26.1 -6.1,-1.2 c -3.4,-0.7 -6.7,-1.5 -7.5,-1.8 -1.2,-0.4 -1.4,1.8 -1.4,13.1 0,12.7 -0.1,13.6 -1.9,13.6 -1.7,0 -1.9,-1.3 -2.7,-14.2 l -0.9,-14.3 -7,-1.6 -7,-1.6 -0.3,26.4 -0.2,26.4 -2.3,-0.3 -2.2,-0.3 -0.3,-26.7 -0.2,-26.7 -4.3,-1.1 c -2.3,-0.6 -5.6,-1.5 -7.4,-2 -1.7,-0.4 -3.4,-0.5 -3.7,-0.2 -0.3,0.3 -0.6,6.6 -0.6,13.9 0,13.4 0,13.4 -2.2,13.1 -2.2,-0.3 -2.3,-0.6 -2.6,-14.5 l -0.3,-14.2 -4.2,-1.1 c -2.3,-0.6 -4.9,-1.3 -5.7,-1.5 -0.8,-0.2 -2.5,-0.6 -3.7,-1 l -2.3,-0.6 v 27.4 27.4 l -2.5,-0.5 -2.5,-0.4 -0.2,-27.6 -0.3,-27.6 -4.6,-1.2 c -2.6,-0.6 -6.3,-1.4 -8.3,-1.8 l -3.6,-0.7 v 14.4 14.4 l -2.5,-0.5 -2.5,-0.4 v -14.7 -14.7 l -8.5,-2.1 -8.5,-2 v 27.9 27.9 l -2.7,-0.3 -2.8,-0.3 -0.3,-28.2 -0.2,-28.2 -4.3,-1.1 c -2.3,-0.6 -5.8,-1.5 -7.7,-2.1 -1.9,-0.5 -3.8,-0.9 -4.2,-0.9 -0.5,0 -0.8,6.6 -0.8,14.6 v 14.5 l -2.7,-0.3 -2.8,-0.3 -0.3,-15.1 -0.3,-15.2 -7.2,-1.7 c -3.9,-0.9 -8,-1.9 -8.9,-2.2 -1.7,-0.4 -1.8,1.4 -1.8,28.7 v 29.2 l -2.2,-0.6 c -1.3,-0.3 -2.6,-0.6 -3,-0.6 -0.5,0 -0.8,-13.2 -0.8,-29.3 v -29.3 l -7.2,-1.7 c -4,-1 -8.3,-2 -9.5,-2.3 l -2.3,-0.6 v 15.5 15.5 l -2.7,-0.7 -2.8,-0.7 -0.3,-15.5 -0.2,-15.5 -7.3,-1.8 c -3.9,-0.9 -8.2,-1.9 -9.4,-2.2 l -2.3,-0.6 v 29.4 c 0,16.2 -0.2,29.7 -0.5,30 -0.3,0.3 -1.7,0.3 -3,0 l -2.5,-0.4 v -30.3 -30.3 l -9.1,-2.1 c -5,-1.2 -9.5,-2.1 -10,-2.1 -0.5,0 -0.9,6.7 -0.9,15.5 0,16.4 0.1,16.2 -4.7,14.9 -2.2,-0.6 -2.3,-1 -2.5,-16.7 l -0.3,-16.2 -9.2,-2.1 -9.3,-2.1 -0.1,11.1 c -0.1,6.1 -0.4,19.7 -0.8,30.2 l -0.6,19 -3.4,-0.8 -3.4,-0.9 0.4,-30.2 0.4,-30.2 -9,-2.2 c -4.9,-1.3 -10,-2.5 -11.2,-2.8 L 1336,144 v 15.5 c 0,16.9 0.2,16.5 -5.9,14.8 l -2.3,-0.6 0.3,-15.6 0.4,-15.6 -10,-2.7 c -5.5,-1.4 -10.8,-2.7 -11.7,-2.7 -1.5,-0.1 -1.7,2.5 -2,29.3 -0.2,16.2 -0.6,29.7 -1,30.1 -0.4,0.4 -1.9,0.3 -3.5,-0.2 l -2.8,-1 0.3,-30.1 0.3,-30.1 -3.8,-1 c -12.2,-3.2 -16.3,-4.1 -18.2,-4.1 -2,0 -2.1,0.4 -2.1,15.5 V 161 l -2.7,-0.6 c -1.6,-0.4 -3.1,-0.9 -3.5,-1.1 -0.5,-0.2 -0.8,-7.5 -0.8,-16.2 v -15.8 l -9.7,-2.2 c -5.4,-1.2 -10.8,-2.5 -12,-2.8 l -2.3,-0.5 v 30.6 30.6 l -2.7,-0.6 c -1.6,-0.3 -3.4,-0.8 -4.1,-1 -1.1,-0.3 -1.2,-6 -0.6,-30.8 0.7,-29.3 0.6,-30.4 -1.2,-30.9 -7,-1.9 -20.6,-4.9 -20.9,-4.6 -0.2,0.2 -0.7,7.5 -1.1,16.1 l -0.7,15.8 -2.6,-0.6 c -1.4,-0.4 -2.9,-0.9 -3.3,-1.3 -0.4,-0.4 -0.9,-7.8 -1,-16.5 l -0.3,-15.9 -10,-2.3 c -5.5,-1.3 -10.5,-2.3 -11.1,-2.4 -0.8,0 -1.3,9.5 -1.8,30.7 -0.4,16.9 -0.9,30.9 -1.1,31.1 -0.2,0.2 -1.8,0.1 -3.6,-0.3 l -3.2,-0.7 0.6,-31.3 0.6,-31.2 -10.7,-2.2 c -5.9,-1.1 -11.2,-2.1 -11.8,-2.1 -0.8,0 -1.4,5.3 -1.9,16.1 l -0.7,16 -3.1,-0.3 -3.2,-0.3 0.4,-16.6 0.3,-16.6 -8.3,-1.2 c -4.6,-0.7 -10.1,-1.5 -12.1,-1.8 l -3.8,-0.6 v 31.1 c 0,17.1 -0.3,31.3 -0.7,31.5 -0.5,0.3 -2.3,0.2 -4.1,0 l -3.3,-0.5 0.3,-31.4 0.3,-31.3 -3,-0.5 c -1.6,-0.3 -6.9,-0.8 -11.7,-1.2 l -8.8,-0.7 v 16.2 16.1 h -3.5 -3.5 V 109.6 93.3 l -11.2,-0.5 c -6.2,-0.3 -11.4,-0.4 -11.6,-0.3 -0.1,0.1 -0.6,13.8 -0.9,30.4 l -0.6,30.1 h -3.4 -3.3 V 122.5 92 h -11.5 -11.5 v 16 16 h -3.5 -3.5 V 108.5 93 h -9.7 c -5.4,0 -10.8,0.3 -12,0.6 l -2.3,0.6 v 29.9 29.9 h -3.9 -4 l 0.6,-30 0.6,-30 -6.4,0.6 C 980.4,95 975,95.5 972,95.9 l -5.5,0.6 -0.3,15.8 -0.3,15.7 H 962.5 959 V 112.5 97 l -3.7,0.5 c -10.7,1.4 -18.7,2.6 -19,2.9 -0.1,0.1 -0.6,13.7 -1,30.2 l -0.8,29.9 -3.2,0.3 -3.3,0.3 V 131 100.8 l -2.3,0.5 c -1.2,0.3 -6.4,1.1 -11.4,1.8 l -9.3,1.3 v 15.7 c 0,16.8 0,16.9 -5.3,16.9 -2.2,0 -2.2,-0.2 -1.9,-15.5 0.3,-13.1 0.1,-15.5 -1.1,-15.5 -1.4,0 -15.5,2.4 -20.4,3.5 L 874,110 v 29.9 c 0,32.6 0.3,31.1 -5.7,31.1 h -2.6 l 0.8,-28.9 c 0.4,-16 0.4,-29.4 0.1,-29.9 -0.3,-0.5 -5,0 -11.3,1.2 l -10.8,2.2 -0.7,14.9 c -0.4,8.2 -0.9,15.4 -1.2,16.1 -0.2,0.6 -1.8,1.4 -3.5,1.6 l -3.1,0.5 0.6,-15.9 0.7,-15.9 -2.4,0.5 c -1.3,0.3 -6.6,1.5 -11.8,2.6 -5.2,1.1 -9.5,2.1 -9.7,2.3 -0.2,0.1 -0.6,13.6 -1,30 -0.4,16.3 -0.8,29.7 -0.8,29.7 -0.1,0 -1.6,0.4 -3.5,1 l -3.4,0.9 0.5,-29.9 c 0.4,-21.7 0.2,-30 -0.6,-30 -0.6,0.1 -5.8,1.1 -11.6,2.4 l -10.5,2.2 -0.3,15.7 -0.3,15.7 -3.2,0.8 -3.2,0.8 -0.3,-15.6 -0.2,-15.6 -11.4,2.5 -11.3,2.6 -0.7,10.4 c -0.3,5.7 -0.6,19.3 -0.6,30.1 0,19.7 0,19.8 -2.3,20.4 -5.1,1.3 -4.9,2.7 -4.6,-29.1 0.1,-17.6 -0.1,-29.7 -0.7,-29.7 -0.5,0.1 -4.4,1 -8.6,2 l -7.8,1.7 v 15.9 15.8 h -2.5 -2.5 v -15 c 0,-17.2 1,-15.9 -10.5,-13.2 l -7,1.7 -0.3,29.7 -0.2,29.6 -2.3,0.6 c -1.2,0.3 -2.6,0.6 -3.1,0.6 -0.4,0 -0.6,-13.3 -0.5,-29.5 0.2,-16.2 0.2,-29.5 0,-29.5 -0.2,0 -2.9,0.6 -6,1.4 -3.1,0.8 -6.8,1.7 -8.3,2 L 681,152 v 15.5 c 0,8.8 -0.4,15.5 -0.9,15.5 -0.5,0 -1.6,0.3 -2.5,0.6 -1.4,0.5 -1.6,-1.3 -1.8,-14.8 l -0.3,-15.4 -8.2,1.9 -8.3,1.8 -0.2,29.2 -0.3,29.2 -2.9,0.3 -2.8,0.4 0.3,-28.6 c 0.3,-18.8 0.1,-28.6 -0.6,-28.6 -0.5,0 -4.3,0.7 -8.2,1.7 l -7.2,1.7 -0.3,15 c -0.3,14.8 -0.3,15.1 -2.6,15.4 -2.2,0.3 -2.2,0.3 -2.2,-14.2 0,-8.8 -0.4,-14.6 -1,-14.6 -0.5,0 -4.3,0.7 -8.5,1.7 l -7.5,1.6 v 28.7 28.8 l -2.5,0.4 c -1.4,0.3 -2.8,0.1 -3.2,-0.4 -0.3,-0.6 -0.2,-13.3 0.2,-28.4 0.4,-15.1 0.3,-27.4 -0.1,-27.4 -0.5,0 -4.2,0.7 -8.1,1.7 l -7.3,1.7 v 14.7 c 0,15 -0.2,15.9 -4.1,15.9 -0.5,0 -0.9,-6.4 -0.9,-14.5 0,-8 -0.4,-14.5 -0.9,-14.5 -0.5,0 -4.1,0.7 -8,1.6 l -7.1,1.6 -0.2,28.2 -0.3,28.1 -2.2,0.3 -2.3,0.3 v -27.5 c 0,-18.7 -0.3,-27.6 -1.1,-27.6 -0.5,0 -4.1,0.7 -7.9,1.6 l -6.9,1.5 -0.3,14.7 c -0.3,14.4 -0.3,14.7 -2.5,15 -2.3,0.3 -2.3,0.3 -2.3,-14.1 v -14.5 l -3.3,0.8 c -1.7,0.5 -5.1,1.4 -7.4,2 l -4.3,1.1 v 27.3 c 0,28.6 0,28.6 -4.1,28.6 -0.5,0 -0.9,-11.5 -0.9,-27.6 0,-23.2 -0.2,-27.5 -1.4,-27.1 -0.8,0.3 -4.1,1.1 -7.5,1.8 l -6,1.1 -0.3,14.7 c -0.3,14.3 -0.3,14.6 -2.5,14.9 -2.3,0.3 -2.3,0.3 -2.3,-13.7 0,-9.1 -0.4,-14.1 -1,-14.1 -0.6,0 -4,0.7 -7.5,1.6 l -6.5,1.6 v 27.4 c 0,26.7 0,27.4 -2,27.4 -1.9,0 -2,-0.7 -2,-26.3 0,-14.5 -0.2,-26.6 -0.5,-26.9 -0.3,-0.3 -3.6,0.2 -7.3,1.1 l -6.7,1.7 -0.3,14.2 c -0.1,7.8 -0.7,14.2 -1.1,14.2 -0.5,0 -1.6,0.3 -2.5,0.6 -1.4,0.5 -1.6,-1 -1.6,-13.5 0,-7.8 -0.3,-14.1 -0.7,-14.1 -0.5,0 -2.4,0.4 -4.3,0.9 -1.9,0.5 -4.7,1.2 -6.2,1.5 L 454,205 v 27 27 h -2.5 -2.5 v -26.3 -26.4 l -7,1.5 -6.9,1.5 -0.3,14.1 c -0.3,12.5 -0.5,14.1 -2.1,14.4 -1.5,0.3 -1.7,-0.8 -1.7,-13.2 0,-15.4 0.5,-14.6 -8.5,-12.3 l -5,1.3 -0.5,26.5 -0.5,26.4 -2.2,0.3 -2.3,0.3 V 241 214.8 l -2.8,0.6 c -1.5,0.4 -4.4,1.1 -6.4,1.7 l -3.7,1 -0.3,13.7 c -0.3,13.4 -0.4,13.7 -2.5,14 -2.3,0.3 -2.3,0.3 -2.3,-13.3 0,-12.5 -0.1,-13.6 -1.7,-13.1 -1,0.3 -3.9,1 -6.5,1.7 l -4.8,1.1 V 248 c 0,22.6 -0.2,25.9 -1.6,26.4 -3.5,1.3 -3.6,-0.2 -2.9,-26.1 0.7,-24.7 0.7,-25.5 -1.1,-25 -1.1,0.4 -3.2,0.9 -4.9,1.2 -6.8,1.5 -6.5,1 -6.6,9.8 -0.2,13.1 -1.1,19.1 -3.1,19.5 -1.6,0.3 -1.8,-1 -2,-13 l -0.3,-13.3 -6.2,1.3 -6.3,1.4 -0.2,25.6 c -0.3,23.4 -0.5,25.7 -2,26 -1.6,0.3 -1.8,-1.6 -2,-25 l -0.3,-25.3 -6.2,1.3 -6.3,1.4 v 13.4 c 0,12.7 -0.1,13.4 -2,13.4 -1.9,0 -2,-0.7 -2,-12.9 0,-14.6 1,-13.3 -8.2,-11 l -3.8,1 -0.2,25.2 c -0.3,23.1 -0.4,25.2 -2,25.5 -1.7,0.3 -1.8,-1.6 -1.8,-29.2 0,-27.2 0.1,-29.5 1.8,-30 7.9,-2.2 440,-104.4 468.2,-110.6 97.9,-21.8 164.4,-32.6 220.5,-36 19.4,-1.2 70.8,-1.5 83.5,-0.6 4.7,0.4 14.4,1.2 21.5,1.7 33.4,2.6 64.7,8.9 167.5,33.7 25,6.1 59.2,14.3 76,18.2 16.8,4 86.1,21.1 154,38 67.9,16.9 200.5,49.6 294.5,72.5 94.1,23 171.3,42.1 171.8,42.5 0.4,0.3 0.6,11 0.5,23.7 -0.2,17.8 -0.6,22.9 -1.5,22.6 z"
       id="path44" />
    <path
       d="m 1959.7,319.3 c -0.4,-0.3 -0.7,-5.1 -0.7,-10.5 0,-9.1 0.1,-9.8 2,-9.8 1.9,0 2,0.7 2,10.5 0,8.1 -0.3,10.5 -1.3,10.5 -0.8,0 -1.7,-0.3 -2,-0.7 z"
       id="path45" />
    <path
       d="m 1947,306.4 c 0,-10.4 0,-10.5 2.3,-10.2 2.1,0.3 2.2,0.8 2.5,10.6 l 0.3,10.2 h -2.6 -2.5 z"
       id="path46" />
    <path
       d="m 1936.3,314.3 c -2,-0.7 -1.8,-21.3 0.1,-21.3 2.2,0 2.3,0.6 3.1,11.8 0.7,10.5 0.6,11.1 -3.2,9.5 z"
       id="path47" />
    <path
       d="m 1923,301 c 0,-6 0.2,-11 0.4,-11 3.1,0 3.6,1.5 3.6,11.6 0,9.7 -0.1,10.4 -2,10.4 -1.9,0 -2,-0.7 -2,-11 z"
       id="path48" />
    <path
       d="m 1912.3,309.2 c -2.2,-0.3 -2.3,-0.7 -2.3,-11.3 0,-11 0,-11 2.3,-10.3 1.2,0.3 2.3,0.8 2.5,0.9 0.1,0.1 0.1,4.9 0,10.6 -0.3,10.1 -0.4,10.4 -2.5,10.1 z"
       id="path49" />
    <path
       d="m 1898.8,306.3 c -1.6,-0.4 -1.8,-1.8 -1.8,-11.5 0,-9.6 0.2,-10.9 1.6,-10.4 0.9,0.3 2,0.6 2.5,0.6 0.5,0 0.9,5 0.9,11 0,6.1 -0.3,10.9 -0.7,10.9 -0.5,-0.1 -1.6,-0.3 -2.5,-0.6 z"
       id="path50" />
    <path
       d="m 1885.3,303.3 c -1.5,-0.6 -1.9,-22.3 -0.4,-22.3 3.7,0 4.1,1.1 4.1,12.1 0,11 -0.2,11.7 -3.7,10.2 z"
       id="path51" />
    <path
       d="m 1871.7,300.3 c -1.1,-1 -0.8,-22.3 0.2,-22.3 3.7,0 4.1,1.1 4.1,12.1 0,9.9 -0.2,10.9 -1.8,10.9 -1,0 -2.2,-0.3 -2.5,-0.7 z"
       id="path52" />
    <path
       d="m 1857.7,297.3 c -0.4,-0.3 -0.7,-5.5 -0.7,-11.5 0,-10.8 0,-10.9 2.3,-10.6 2.1,0.3 2.2,0.7 2.5,11.6 0.2,10.4 0.1,11.2 -1.6,11.2 -1,0 -2.2,-0.3 -2.5,-0.7 z"
       id="path53" />
    <path
       d="m 1843.7,294.3 c -0.4,-0.3 -0.7,-5.7 -0.7,-11.8 v -11.2 l 2.5,0.5 c 2.5,0.4 2.5,0.5 2.5,11.8 0,10.4 -0.2,11.4 -1.8,11.4 -1,0 -2.2,-0.3 -2.5,-0.7 z"
       id="path54" />
    <path
       d="m 1829.3,291.3 c -0.9,-0.3 -1.3,-3.7 -1.3,-12 0,-11.5 0,-11.5 2.3,-10.9 1.2,0.3 2.5,0.6 3,0.6 0.4,0 0.7,5.2 0.7,11.5 0,10.3 -0.2,11.5 -1.7,11.4 -1,0 -2.4,-0.3 -3,-0.6 z"
       id="path55" />
    <path
       d="m 1815.3,288.3 c -0.9,-0.3 -1.3,-3.7 -1.3,-12 0,-11.3 0,-11.4 2.3,-11.1 2.1,0.3 2.2,0.7 2.5,12.1 0.3,11.9 0.1,12.5 -3.5,11 z"
       id="path56" />
    <path
       d="m 1800.8,285.3 c -1.6,-0.4 -1.8,-1.9 -1.8,-12.5 0,-10.5 0.2,-11.9 1.6,-11.4 0.9,0.3 2,0.6 2.5,0.6 0.5,0 0.9,5.4 0.9,12 0,6.6 -0.3,11.9 -0.7,11.9 -0.5,-0.1 -1.6,-0.3 -2.5,-0.6 z"
       id="path57" />
    <path
       d="m 1783,269.6 v -12.4 l 2.8,0.7 2.7,0.7 0.3,11.7 0.3,11.7 h -3.1 -3 z"
       id="path58" />
    <path
       d="m 1768.3,278.3 c -2,-0.7 -1.8,-24.3 0.1,-24.3 4.3,0 4.6,0.7 4.6,13.1 0,10.7 -0.2,11.9 -1.7,11.8 -1,0 -2.4,-0.3 -3,-0.6 z"
       id="path59" />
    <path
       d="m 1753.3,275.3 c -2.2,-0.4 -2.3,-0.8 -2.3,-12.9 0,-6.8 0.3,-12.4 0.8,-12.4 0.4,0 1.7,0.3 3,0.6 2.1,0.6 2.2,1 2.2,13 0,6.8 -0.3,12.3 -0.7,12.3 -0.5,-0.1 -1.8,-0.4 -3,-0.6 z"
       id="path60" />
    <path
       d="m 1736.4,271.2 c -0.7,-0.4 -1.4,-5.8 -1.9,-12.9 -0.7,-13 -0.6,-13.2 3.8,-11.4 1.6,0.6 1.9,2.2 2.3,12.9 0.5,11.3 0.4,12.2 -1.3,12.2 -1,0 -2.3,-0.4 -2.9,-0.8 z"
       id="path61" />
    <path
       d="m 316,256.3 c 0,-10.8 0.3,-13.3 1.4,-13.3 0.8,0 2.1,-0.3 3,-0.6 1.4,-0.5 1.6,1 1.6,12.9 v 13.5 l -3,0.4 -3,0.5 z"
       id="path62" />
    <path
       d="m 1720.5,268 -3,-0.5 -0.3,-12.8 -0.3,-12.9 3.3,0.7 c 1.8,0.4 3.4,0.8 3.6,1 0.1,0.1 0.1,5.8 0,12.6 l -0.3,12.4 z"
       id="path63" />
    <path
       d="m 332.2,252.8 0.3,-13.3 3.3,-0.3 3.2,-0.3 v 12.9 c 0,12.6 -0.1,13 -2.2,13.6 -4.9,1.3 -4.9,1.4 -4.6,-12.6 z"
       id="path64" />
    <path
       d="m 1702.3,264 c -2.2,-0.9 -2.3,-1.4 -2.3,-13.5 0,-7.1 0.4,-12.5 0.9,-12.5 0.5,0 2.1,0.4 3.5,1 2.6,1 2.6,1 2.6,13.5 0,13.2 -0.1,13.4 -4.7,11.5 z"
       id="path65" />
    <path
       d="m 349,249 v -12.9 l 3.3,-0.9 3.2,-0.8 0.3,13 c 0.3,13.7 0,14.6 -4.5,14.6 -2.3,0 -2.3,-0.2 -2.3,-13 z"
       id="path66" />
    <path
       d="m 1684.3,260.3 c -2.2,-0.4 -2.3,-0.8 -2.3,-13.5 0,-13 0,-13 2.3,-12.4 1.2,0.3 2.8,0.6 3.5,0.6 0.9,0 1.2,3.3 1.2,13 0,9.8 -0.3,13 -1.2,12.9 -0.7,-0.1 -2.3,-0.4 -3.5,-0.6 z"
       id="path67" />
    <path
       d="m 367.2,245.2 0.3,-13.6 2.8,-0.7 2.8,-0.7 -0.3,13.6 -0.3,13.6 -2.8,0.7 -2.8,0.7 z"
       id="path68" />
    <path
       d="m 1665.8,256.3 c -1.6,-0.4 -1.8,-1.9 -1.8,-13.4 0,-13.5 0.2,-13.9 4.4,-12.3 1.3,0.5 1.6,2.7 1.6,13.5 0,13.4 0,13.3 -4.2,12.2 z"
       id="path69" />
    <path
       d="m 1964.3,256.3 c -0.9,-0.3 -1.3,-3.2 -1.3,-9.3 0,-8.8 0,-8.8 -2.7,-9.5 -1.6,-0.3 -55.2,-14.8 -119.3,-32.1 C 1560.8,129.6 1275.6,53.1 1231,41.6 1086.3,4.5 979,4.2 830.5,40.5 814.4,44.4 508.6,124.2 318.8,174.1 l -3.8,1 v 10.8 10.9 l -3,0.4 -3,0.5 V 183 168.4 L 546.2,103.5 C 836.1,24.2 836.6,24.1 887,14.6 941.4,4.4 981,0.5 1032,0.6 c 64,0.1 117.9,7.3 191.1,25.5 75.8,18.7 643.8,173.8 740.9,202.2 l 4.5,1.3 0.3,13.7 c 0.2,12.6 0.1,13.7 -1.5,13.6 -1,0 -2.4,-0.3 -3,-0.6 z"
       id="path70" />
    <path
       d="m 384.3,245.3 c 0.4,-5.4 0.7,-11.7 0.7,-13.9 0,-3.9 0.2,-4.2 3,-4.6 l 3,-0.5 v 13.3 c 0,7.3 -0.3,13.5 -0.7,13.7 -0.5,0.2 -2.1,0.7 -3.7,1.1 l -2.9,0.7 z"
       id="path71" />
    <path
       d="m 1646.9,252.3 c -1.8,-0.4 -2.9,-8.3 -2.9,-20.6 v -6.9 l 3.3,0.7 c 1.7,0.4 3.3,0.8 3.3,0.9 0.1,0 0.5,6.1 0.8,13.4 0.8,14.3 0.9,14 -4.5,12.5 z"
       id="path72" />
    <path
       d="m 402,237.6 c 0,-7.4 0.3,-13.7 0.8,-13.9 0.4,-0.2 1.9,-0.7 3.5,-1.1 L 409,222 v 13.4 c 0,7.4 -0.3,13.7 -0.7,13.9 -0.5,0.2 -2,0.7 -3.5,1.1 L 402,251 Z"
       id="path73" />
    <path
       d="m 1628,248.1 c -2.5,-0.7 -2.5,-0.7 -2.8,-14.3 l -0.3,-13.7 3.2,0.9 c 1.7,0.5 3.3,1.1 3.5,1.2 0.8,0.9 0.8,26.8 -0.1,26.7 -0.5,-0.1 -2.1,-0.4 -3.5,-0.8 z"
       id="path74" />
    <path
       d="m 420,233.1 c 0,-10.6 0.3,-14.1 1.3,-14.1 0.6,0 2.2,-0.3 3.5,-0.6 l 2.2,-0.6 v 14.1 c 0,13.2 -0.1,14.1 -1.9,14.1 -1.1,0 -2.6,0.3 -3.5,0.6 -1.4,0.5 -1.6,-1 -1.6,-13.5 z"
       id="path75" />
    <path
       d="m 1608.3,243.8 -3.3,-0.9 v -13.6 -13.5 l 3.2,0.6 c 1.7,0.3 3.2,0.7 3.3,0.9 0.6,0.7 1.2,26.8 0.6,27.1 -0.3,0.2 -2.1,-0.1 -3.8,-0.6 z"
       id="path76" />
    <path
       d="m 439,229 c 0,-13.4 0.1,-13.8 2.3,-14.4 4.8,-1.3 4.8,-1.4 4.5,13.1 l -0.3,13.7 -3.2,0.7 -3.3,0.6 z"
       id="path77" />
    <path
       d="m 1586.3,239 c -2.2,-0.9 -2.3,-1.4 -2.3,-14.6 v -13.6 l 3.1,0.6 c 1.7,0.3 3.5,0.6 4,0.6 0.5,0 0.9,6.3 0.9,14 0,15.2 0,15.3 -5.7,13 z"
       id="path78" />
    <path
       d="m 458,224.9 c 0,-14.5 0,-14.4 4.5,-15.1 1.8,-0.3 2,0.3 2.3,7.7 0.1,4.4 -0.1,10.7 -0.5,13.9 -0.7,5.4 -1.1,6 -3.5,6.7 l -2.8,0.7 z"
       id="path79" />
    <path
       d="m 1569.5,235.4 c -0.5,-0.1 -2.2,-0.5 -3.7,-0.8 L 1563,234 v -14.1 -14 l 3.8,0.7 c 2,0.4 3.8,0.8 4,0.9 0.8,0.7 -0.4,28.1 -1.3,27.9 z"
       id="path80" />
    <path
       d="m 477,220 c 0,-10.5 0.3,-14 1.3,-14 0.6,0 2.2,-0.3 3.5,-0.6 l 2.2,-0.6 v 14 c 0,13.6 -0.1,14 -2.2,14.6 -4.8,1.3 -4.8,1.4 -4.8,-13.4 z"
       id="path81" />
    <path
       d="m 1544.5,230.1 -3,-0.6 -0.3,-14.4 -0.3,-14.3 3.8,0.7 c 2.1,0.4 4.1,0.9 4.5,1.1 0.5,0.3 0.8,6.8 0.8,14.5 0,10.5 -0.3,13.9 -1.2,13.8 -0.7,-0.1 -2.6,-0.4 -4.3,-0.8 z"
       id="path82" />
    <path
       d="m 496,216.2 v -14.1 l 3.3,-0.9 3.2,-0.8 0.3,13.9 c 0.1,7.7 0.1,14.1 -0.1,14.3 -0.2,0.2 -1.8,0.7 -3.5,1 l -3.2,0.7 z"
       id="path83" />
    <path
       d="m 516,211.6 c 0,-14.1 0,-14.4 2.3,-15 4.7,-1.3 4.7,-1.4 4.7,13.3 0,7.7 -0.3,14.2 -0.7,14.4 -0.5,0.2 -2,0.7 -3.5,1.1 L 516,226 Z"
       id="path84" />
    <path
       d="m 1521.8,225.3 -2.8,-0.4 V 210 195.1 l 4.3,1.3 4.2,1.2 0.3,14.2 c 0.3,15.6 0.8,14.5 -6,13.5 z"
       id="path85" />
    <path
       d="m 535.7,220.3 c -0.4,-0.3 -0.7,-6.6 -0.7,-13.9 0,-12.4 0.1,-13.3 2,-13.8 1.1,-0.3 2.9,-0.9 4,-1.2 1.9,-0.5 2,-0.1 2,13.9 0,12.3 -0.2,14.6 -1.6,15.1 -2.1,0.8 -4.9,0.8 -5.7,-0.1 z"
       id="path86" />
    <path
       d="m 1499,220.1 -2.5,-0.7 -0.3,-14.7 -0.3,-14.8 3.8,0.7 c 2.1,0.4 4.1,0.9 4.6,1.1 0.4,0.2 0.7,6.9 0.7,14.9 0,15.7 0.2,15.2 -6,13.5 z"
       id="path87" />
    <path
       d="m 556,202.7 c 0,-15.4 0.1,-15.7 5.1,-15.7 1.8,0 1.9,0.9 1.9,14.5 0,10.9 -0.3,14.5 -1.2,14.5 -0.7,0 -2.3,0.3 -3.5,0.6 l -2.3,0.6 z"
       id="path88" />
    <path
       d="m 1475.3,214.9 -3.3,-1 v -14.3 c 0,-7.8 0.2,-14.5 0.5,-14.8 0.3,-0.3 2.4,-0.1 4.5,0.4 l 4,1 v 14.9 c 0,16.1 0.2,15.5 -5.7,13.8 z"
       id="path89" />
    <path
       d="m 577,197.6 v -14.4 l 3,-0.7 c 1.6,-0.4 3.4,-0.3 4.1,0 1.4,0.9 0.1,27.7 -1.5,28.7 -0.6,0.4 -2.1,0.8 -3.3,0.8 -2.3,0 -2.3,-0.1 -2.3,-14.4 z"
       id="path90" />
    <path
       d="m 1451.8,209.8 -3.8,-1 v -15.3 -15.2 l 4.5,1 4.5,1 v 15.4 c 0,8.4 -0.3,15.3 -0.7,15.2 -0.5,-0.1 -2.5,-0.6 -4.5,-1.1 z"
       id="path91" />
    <path
       d="m 598,193.1 v -14.8 l 3.1,-0.7 c 1.7,-0.3 3.6,-0.6 4.2,-0.6 0.9,0 0.6,28.5 -0.4,29.3 -0.2,0.2 -1.9,0.7 -3.6,1 L 598,208 Z"
       id="path92" />
    <path
       d="m 1425.8,204.3 -2.8,-0.4 v -15.8 -15.8 l 4.5,1 4.5,1 v 15.4 c 0,16.8 0.5,15.6 -6.2,14.6 z"
       id="path93" />
    <path
       d="m 619,188.6 c 0,-8 0.3,-14.7 0.8,-14.9 0.4,-0.3 2.2,-0.8 4,-1.2 l 3.2,-0.7 v 14.6 14.6 l -2.6,1 c -5.4,2.1 -5.4,2.2 -5.4,-13.4 z"
       id="path94" />
    <path
       d="m 1401.3,198.7 -4.3,-1 V 181.8 166 l 2.8,0.6 c 7.7,1.9 7.2,0.7 7.2,17.3 0,8.2 -0.3,15.2 -0.7,15.4 -0.5,0.2 -2.7,-0.1 -5,-0.6 z"
       id="path95" />
    <path
       d="m 641,183.1 v -14.8 l 3.1,-0.7 c 1.7,-0.3 3.5,-0.6 4,-0.6 0.5,0 0.9,6.7 0.9,14.9 0,14.6 0,14.9 -2.2,15.5 -5.9,1.5 -5.8,1.9 -5.8,-14.3 z"
       id="path96" />
    <path
       d="m 663,178.5 v -15.3 l 3.6,-0.7 c 2,-0.3 3.7,-0.5 3.9,-0.3 0.1,0.2 0.4,6.8 0.6,14.8 l 0.4,14.4 -4.2,1.2 -4.3,1.3 z"
       id="path97" />
    <path
       d="m 1374.3,192.8 -4.3,-0.9 v -16 c 0,-8.7 0.3,-15.9 0.6,-15.9 0.3,0 2.5,0.5 5,1.1 l 4.4,1.1 v 15.9 c 0,8.8 -0.3,15.9 -0.7,15.8 -0.5,-0.1 -2.7,-0.5 -5,-1.1 z"
       id="path98" />
    <path
       d="m 686,173 v -15 l 2.8,-0.6 c 1.5,-0.3 3.3,-0.7 4,-1 0.9,-0.2 1.2,3.2 1.2,15 0,15.1 0,15.4 -2.2,16 -5.9,1.5 -5.8,1.9 -5.8,-14.4 z"
       id="path99" />
    <path
       d="m 1346.5,185.6 -5,-1.1 0.4,-15.5 c 0.2,-8.5 0.4,-15.6 0.6,-15.8 0.1,-0.2 2.3,0.2 4.9,0.9 l 4.6,1.1 v 15.9 c 0,8.8 -0.1,15.9 -0.2,15.8 -0.2,0 -2.5,-0.6 -5.3,-1.3 z"
       id="path100" />
    <path
       d="M 708,168.4 V 153 l 2.8,-0.6 c 1.5,-0.3 3.5,-0.8 4.5,-1.1 1.6,-0.4 1.7,0.8 1.7,15.1 0,8.6 -0.3,15.6 -0.7,15.6 -0.5,0 -2.5,0.4 -4.5,0.9 l -3.8,0.9 z"
       id="path101" />
    <path
       d="m 1316,178.3 -5.5,-1.4 0.3,-15.2 c 0.2,-8.4 0.5,-15.3 0.7,-15.5 0.4,-0.4 8.1,1 9.4,1.7 0.8,0.5 1.1,5.3 0.9,16.2 l -0.3,15.5 z"
       id="path102" />
    <path
       d="m 731.6,162.8 c 0.4,-8.4 0.7,-15.4 0.8,-15.5 0,0 1.8,-0.4 3.9,-0.8 l 3.7,-0.7 v 15.5 c 0,15.2 0,15.5 -2.2,16.1 -1.3,0.3 -3.3,0.6 -4.6,0.6 h -2.3 z"
       id="path103" />
    <path
       d="m 757.2,157.4 0.3,-15.8 5.5,-1.2 c 3,-0.7 5.6,-1.3 5.8,-1.4 0.5,0 0.1,24.7 -0.4,28.1 -0.6,3.3 -1,3.7 -4.4,4.3 -2.1,0.3 -4.6,0.9 -5.4,1.2 -1.5,0.6 -1.6,-1 -1.4,-15.2 z"
       id="path104" />
    <path
       d="m 1284.3,170.7 -4.3,-1 v -15.2 c 0,-8.3 0.3,-15.4 0.6,-15.7 0.5,-0.5 10.3,1.6 10.8,2.4 0.2,0.2 0.1,7.2 -0.2,15.6 -0.3,10.4 -0.8,15.2 -1.6,15.1 -0.6,-0.1 -3,-0.6 -5.3,-1.2 z"
       id="path105" />
    <path
       d="m 788.2,150.3 0.3,-15.8 5.3,-0.9 c 2.9,-0.5 5.5,-0.6 5.8,-0.3 0.4,0.3 0.3,7.3 -0.1,15.6 l -0.7,14.9 -3.7,0.7 c -2,0.3 -4.4,0.8 -5.4,1.1 -1.6,0.5 -1.7,-0.5 -1.5,-15.3 z"
       id="path106" />
    <path
       d="m 1253.8,163.7 -4.8,-1 v -15.9 c 0,-9 0.4,-15.8 0.9,-15.8 0.5,0 3.2,0.5 6,1.2 l 5.1,1.1 v 14.3 c 0,13.6 -0.4,17.6 -1.9,17.3 -0.3,-0.1 -2.7,-0.6 -5.3,-1.2 z"
       id="path107" />
    <path
       d="m 818.3,152.4 c 0.4,-3.8 0.7,-10.8 0.7,-15.6 v -8.6 l 5,-1.1 c 2.8,-0.6 5.3,-1.1 5.5,-1.1 0.3,0 0.5,6.9 0.5,15.4 0,17.1 0.5,16 -7.5,17.2 l -4.8,0.7 z"
       id="path108" />
    <path
       d="m 1222.8,156.8 -4.8,-1 v -15.9 c 0,-17.8 -0.5,-16.8 7.6,-14.8 l 4.4,1.1 v 15.9 c 0,12.1 -0.3,15.9 -1.2,15.8 -0.7,-0.1 -3.4,-0.6 -6,-1.1 z"
       id="path109" />
    <path
       d="m 849.6,137.9 c 0.3,-8.5 0.9,-15.7 1.3,-16 0.3,-0.4 2.7,-1 5.4,-1.3 l 4.7,-0.7 v 10.9 c 0,14.2 -0.8,20 -2.9,20.6 -0.9,0.3 -3.3,0.8 -5.4,1.2 l -3.8,0.6 z"
       id="path110" />
    <path
       d="m 1191.3,149.9 -3.3,-1 V 133 c 0,-10.6 0.4,-16 1.1,-16 0.5,0 3,0.5 5.5,1.1 l 4.4,1.1 v 15.9 c 0,15.8 0,15.9 -2.2,15.8 -1.3,0 -3.8,-0.5 -5.5,-1 z"
       id="path111" />
    <path
       d="m 880,131.6 v -15.4 l 3.8,-0.6 c 2,-0.4 4.5,-0.9 5.5,-1.2 1.6,-0.5 1.7,0.7 1.7,15.4 v 15.9 l -3.7,0.7 c -7.8,1.2 -7.3,2.3 -7.3,-14.8 z"
       id="path112" />
    <path
       d="m 1161,144.1 -3.5,-0.6 -0.3,-16.2 c -0.3,-18.2 -0.8,-17 7.1,-15.7 l 3.7,0.7 v 16.3 c 0,18.2 0.6,16.9 -7,15.5 z"
       id="path113" />
    <path
       d="m 911,126.7 v -15.6 l 3.8,-0.6 c 2,-0.3 4.5,-0.8 5.5,-1 1.6,-0.3 1.7,1 1.7,15.6 0,14.5 -0.2,15.9 -1.7,15.9 -1,0 -3.5,0.3 -5.5,0.6 l -3.8,0.7 z"
       id="path114" />
    <path
       d="m 1133,139.3 c -7.7,-1.2 -7,0.5 -7,-17.9 0,-15.3 0.1,-16.5 1.8,-16.1 0.9,0.3 3.4,0.8 5.5,1.2 l 3.7,0.6 v 16.4 c 0,9.1 -0.3,16.4 -0.7,16.4 -0.5,-0.1 -1.9,-0.3 -3.3,-0.6 z"
       id="path115" />
    <path
       d="m 941,122.5 c 0,-11.6 0.3,-15.7 1.3,-15.9 0.6,-0.3 3.4,-0.7 6.1,-1 l 4.8,-0.6 -0.3,15.4 c -0.2,8.5 -0.6,15.6 -0.9,15.9 -0.3,0.2 -2.9,0.7 -5.7,1.1 l -5.3,0.7 z"
       id="path116" />
    <path
       d="m 1096.3,134.3 c -1.5,-0.6 -1.8,-28.9 -0.4,-31.2 0.7,-1 2.1,-1.2 5.7,-0.7 2.6,0.3 4.9,0.8 5.2,1 0.2,0.3 0.1,7.5 -0.3,16 l -0.7,15.6 -4.2,-0.1 c -2.2,0 -4.7,-0.3 -5.3,-0.6 z"
       id="path117" />
    <path
       d="m 972,118.5 c 0,-12.4 0.3,-15.5 1.4,-15.5 0.7,0 3.4,-0.3 6,-0.6 l 4.6,-0.7 v 15.5 c 0,17.5 0.4,16.8 -8.2,16.8 H 972 Z"
       id="path118" />
    <path
       d="m 1003,116.6 c 0,-17.1 -0.2,-16.6 7.1,-16.6 h 3.9 v 15.4 15.3 l -3.7,0.7 c -7.8,1.2 -7.3,2.3 -7.3,-14.8 z"
       id="path119" />
    <path
       d="M 1064,116 V 99.9 l 5.8,0.3 5.7,0.3 0.3,15.8 0.3,15.7 h -6.1 -6 z"
       id="path120" />
    <path
       d="M 1034,115.5 V 100 h 5.5 5.5 v 15.5 15.5 h -5.5 -5.5 z"
       id="path121" />
  </g>
</svg>
